<svg width="100" height="100" viewBox="0 0 100 100" fill="none" xmlns="http://www.w3.org/2000/svg">
<path d="M74.1522 11.6596H70.2276C69.7009 9.47449 67.4941 7.82979 64.8587 7.82979H56.5707C55.333 5.54072 52.6741 4 49.6957 4C46.717 4 44.0583 5.54072 42.8207 7.82979H34.5326C31.8972 7.82979 29.6904 9.47449 29.1637 11.6596H25.2391C20.1446 11.6596 16 15.3103 16 19.7979V85.8617C16 90.3493 20.1446 94 25.2391 94H74.1522C79.2467 94 83.3913 90.3493 83.3913 85.8617V19.7979C83.3913 15.3103 79.2467 11.6596 74.1522 11.6596ZM33.3913 12.6649C33.3913 12.1105 33.9033 11.6596 34.5326 11.6596H44.3698C45.4037 11.6596 46.2946 11.0181 46.5002 10.1256C46.8067 8.79528 48.1509 7.82979 49.6957 7.82979C51.2404 7.82979 52.5846 8.79528 52.8911 10.1256C53.0967 11.0181 53.9876 11.6596 55.0215 11.6596H64.8587C65.488 11.6596 66 12.1105 66 12.6649V16.3989C66 16.9533 65.488 17.4043 64.8587 17.4043H34.5326C33.9033 17.4043 33.3913 16.9533 33.3913 16.3989V12.6649ZM79.0435 85.8617C79.0435 88.0755 77.1376 89.9039 74.6957 90.1428V34.6383C74.6957 33.5807 73.7222 32.7234 72.5217 32.7234C71.3213 32.7234 70.3478 33.5807 70.3478 34.6383V90.1702H29.0435V28.8936C29.0435 27.836 28.0702 26.9787 26.8696 26.9787C25.6689 26.9787 24.6957 27.836 24.6957 28.8936V90.1428C22.2535 89.9039 20.3478 88.0753 20.3478 85.8617V19.7979C20.3478 17.4221 22.542 15.4894 25.2391 15.4894H29.0435V16.3989C29.0435 19.065 31.5059 21.234 34.5326 21.234H64.8587C67.8854 21.234 70.3478 19.065 70.3478 16.3989V15.4894H74.1522C76.8491 15.4894 79.0435 17.4221 79.0435 19.7979V85.8617Z" fill="white"/>
<path d="M65.9993 38.4678H48.608C47.4073 38.4678 46.4341 39.3251 46.4341 40.3827C46.4341 41.4403 47.4073 42.2976 48.608 42.2976H65.9993C67.1997 42.2976 68.1732 41.4403 68.1732 40.3827C68.1732 39.3251 67.1997 38.4678 65.9993 38.4678Z" fill="white"/>
<path d="M48.608 36.5534H57.3036C58.5041 36.5534 59.4775 35.6961 59.4775 34.6385C59.4775 33.5809 58.5041 32.7236 57.3036 32.7236H48.608C47.4073 32.7236 46.4341 33.5809 46.4341 34.6385C46.4341 35.6961 47.4073 36.5534 48.608 36.5534Z" fill="white"/>
<path d="M40.5725 44.7533L35.906 48.7403L34.3455 47.3658C33.4966 46.618 32.1201 46.618 31.271 47.3658C30.422 48.1135 30.422 49.326 31.271 50.0738L34.3453 52.7821C35.1844 53.5212 36.5429 53.5315 37.3962 52.8023L43.5997 47.5025C44.4614 46.7662 44.4825 45.5539 43.6466 44.7946C42.8105 44.0354 41.434 44.017 40.5725 44.7533Z" fill="white"/>
<path d="M65.9993 49.9575H48.608C47.4073 49.9575 46.4341 50.815 46.4341 51.8724C46.4341 52.9298 47.4073 53.7873 48.608 53.7873H65.9993C67.1997 53.7873 68.1732 52.9298 68.1732 51.8724C68.1732 50.815 67.1997 49.9575 65.9993 49.9575Z" fill="white"/>
<path d="M48.608 48.0427H57.3036C58.5041 48.0427 59.4775 47.1854 59.4775 46.1278C59.4775 45.0702 58.5041 44.2129 57.3036 44.2129H48.608C47.4073 44.2129 46.4341 45.0702 46.4341 46.1278C46.4341 47.1854 47.4073 48.0427 48.608 48.0427Z" fill="white"/>
<path d="M40.5724 56.2422L35.9058 60.229L34.3454 58.8543C33.4965 58.1069 32.12 58.1067 31.271 58.8543C30.4221 59.6021 30.4219 60.8146 31.271 61.5626L34.3454 64.2708C35.1845 65.01 36.543 65.0203 37.3963 64.2911L43.5998 58.991C44.4615 58.2548 44.4826 57.0424 43.6467 56.2834C42.8104 55.5241 41.4339 55.5057 40.5724 56.2422Z" fill="white"/>
<path d="M65.9993 61.4473H48.608C47.4073 61.4473 46.4341 62.3048 46.4341 63.3622C46.4341 64.4196 47.4073 65.2771 48.608 65.2771H65.9993C67.1997 65.2771 68.1732 64.4196 68.1732 63.3622C68.1732 62.3048 67.1997 61.4473 65.9993 61.4473Z" fill="white"/>
<path d="M48.608 59.5315H57.3036C58.5041 59.5315 59.4775 58.674 59.4775 57.6166C59.4775 56.5592 58.5041 55.7017 57.3036 55.7017H48.608C47.4073 55.7017 46.4341 56.5592 46.4341 57.6166C46.4341 58.674 47.4073 59.5315 48.608 59.5315Z" fill="white"/>
<path d="M40.5724 67.7319L35.9058 71.7188L34.3454 70.3441C33.4965 69.5967 32.12 69.5965 31.271 70.3441C30.4221 71.0918 30.4219 72.3044 31.271 73.0523L34.3454 75.7606C35.1845 76.4997 36.543 76.5101 37.3963 75.7809L43.5998 70.4808C44.4615 69.7445 44.4826 68.5322 43.6467 67.7731C42.8104 67.0139 41.4339 66.9955 40.5724 67.7319Z" fill="white"/>
<path d="M65.9993 72.9365H48.608C47.4073 72.9365 46.4341 73.794 46.4341 74.8514C46.4341 75.9088 47.4073 76.7663 48.608 76.7663H65.9993C67.1997 76.7663 68.1732 75.9088 68.1732 74.8514C68.1732 73.794 67.1997 72.9365 65.9993 72.9365Z" fill="white"/>
<path d="M48.608 71.0212H57.3036C58.5041 71.0212 59.4775 70.1637 59.4775 69.1063C59.4775 68.0489 58.5041 67.1914 57.3036 67.1914H48.608C47.4073 67.1914 46.4341 68.0489 46.4341 69.1063C46.4341 70.1637 47.4073 71.0212 48.608 71.0212Z" fill="white"/>
</svg>
