<svg width="100" height="100" viewBox="0 0 100 100" fill="none" xmlns="http://www.w3.org/2000/svg">
<path d="M61.6214 39.2858C63.7526 39.2858 65.7965 40.1324 67.3035 41.6394C68.8105 43.1464 69.6571 45.1903 69.6571 47.3215V69.6394C69.6571 74.8499 67.5872 79.8471 63.9028 83.5315C60.2184 87.2159 55.2212 89.2858 50.0107 89.2858C44.8001 89.2858 39.803 87.2159 36.1186 83.5315C32.4341 79.8471 30.3643 74.8499 30.3643 69.6394V47.3215C30.3643 45.1903 31.2109 43.1464 32.7179 41.6394C34.2248 40.1324 36.2688 39.2858 38.4 39.2858H61.6214ZM61.6214 44.6429H38.4C37.6896 44.6429 37.0083 44.9251 36.5059 45.4275C36.0036 45.9298 35.7214 46.6111 35.7214 47.3215V69.6394C35.7214 73.4291 37.2269 77.0637 39.9066 79.7434C42.5864 82.4232 46.2209 83.9286 50.0107 83.9286C53.8004 83.9286 57.435 82.4232 60.1147 79.7434C62.7945 77.0637 64.3 73.4291 64.3 69.6394V47.3215C64.3 46.6111 64.0178 45.9298 63.5154 45.4275C63.0131 44.9251 62.3318 44.6429 61.6214 44.6429V44.6429ZM15.1785 39.2858H30.0214C28.5875 40.7787 27.58 42.6286 27.1035 44.6429H15.1785C14.4681 44.6429 13.7868 44.9251 13.2845 45.4275C12.7822 45.9298 12.5 46.6111 12.5 47.3215V66.0679C12.4995 67.8599 12.9483 69.6234 13.8054 71.1971C14.6625 72.7708 15.9005 74.1045 17.4062 75.0762C18.9118 76.0479 20.6371 76.6265 22.4242 76.7592C24.2112 76.8919 26.003 76.5744 27.6357 75.8358C28.1107 77.5858 28.7928 79.2501 29.65 80.8072C27.2031 81.8756 24.5286 82.3176 21.8681 82.0934C19.2075 81.8692 16.6448 80.9859 14.4111 79.5231C12.1775 78.0604 10.3434 76.0643 9.07444 73.7152C7.80548 71.3661 7.14162 68.7379 7.14282 66.0679V47.3215C7.14282 45.1903 7.98944 43.1464 9.49643 41.6394C11.0034 40.1324 13.0473 39.2858 15.1785 39.2858V39.2858ZM84.8214 39.2858C86.9526 39.2858 88.9965 40.1324 90.5035 41.6394C92.0105 43.1464 92.8571 45.1903 92.8571 47.3215V66.0715C92.8582 68.7399 92.1948 71.3667 90.9268 73.7146C89.6589 76.0625 87.8262 78.0578 85.5943 79.5204C83.3624 80.9829 80.8014 81.8667 78.1425 82.092C75.4836 82.3173 72.8104 81.877 70.3642 80.8108L70.5642 80.4465C71.3285 78.9965 71.9464 77.4572 72.3892 75.8429C74.021 76.5772 75.8107 76.891 77.5949 76.7559C79.3791 76.6207 81.1011 76.0409 82.6037 75.0692C84.1062 74.0976 85.3415 72.7651 86.1968 71.1934C87.052 69.6217 87.5001 67.8608 87.5 66.0715V47.3215C87.5 46.6117 87.2182 45.931 86.7167 45.4287C86.2151 44.9265 85.5347 44.6439 84.825 44.6429H72.9214C72.4441 42.6281 71.4353 40.7782 70 39.2858H84.825H84.8214ZM50 10.7144C51.6415 10.7144 53.2669 11.0377 54.7835 11.6659C56.3001 12.294 57.6781 13.2148 58.8388 14.3755C59.9995 15.5363 60.9203 16.9142 61.5485 18.4308C62.1766 19.9474 62.5 21.5728 62.5 23.2144C62.5 24.8559 62.1766 26.4813 61.5485 27.9979C60.9203 29.5145 59.9995 30.8925 58.8388 32.0532C57.6781 33.2139 56.3001 34.1347 54.7835 34.7629C53.2669 35.391 51.6415 35.7144 50 35.7144C46.6848 35.7144 43.5053 34.3974 41.1611 32.0532C38.8169 29.709 37.5 26.5296 37.5 23.2144C37.5 19.8991 38.8169 16.7197 41.1611 14.3755C43.5053 12.0313 46.6848 10.7144 50 10.7144V10.7144ZM78.5821 14.2858C79.9891 14.2858 81.3824 14.5629 82.6823 15.1014C83.9822 15.6398 85.1633 16.429 86.1582 17.4239C87.1532 18.4188 87.9424 19.6 88.4808 20.8999C89.0193 22.1998 89.2964 23.5931 89.2964 25.0001C89.2964 26.4071 89.0193 27.8003 88.4808 29.1003C87.9424 30.4002 87.1532 31.5813 86.1582 32.5762C85.1633 33.5711 83.9822 34.3603 82.6823 34.8988C81.3824 35.4372 79.9891 35.7144 78.5821 35.7144C75.7405 35.7144 73.0153 34.5855 71.006 32.5762C68.9966 30.5669 67.8678 27.8417 67.8678 25.0001C67.8678 22.1585 68.9966 19.4332 71.006 17.4239C73.0153 15.4146 75.7405 14.2858 78.5821 14.2858V14.2858ZM21.4178 14.2858C22.8248 14.2858 24.2181 14.5629 25.518 15.1014C26.8179 15.6398 27.9991 16.429 28.994 17.4239C29.9889 18.4188 30.7781 19.6 31.3165 20.8999C31.855 22.1998 32.1321 23.5931 32.1321 25.0001C32.1321 26.4071 31.855 27.8003 31.3165 29.1003C30.7781 30.4002 29.9889 31.5813 28.994 32.5762C27.9991 33.5711 26.8179 34.3603 25.518 34.8988C24.2181 35.4372 22.8248 35.7144 21.4178 35.7144C18.5762 35.7144 15.851 34.5855 13.8417 32.5762C11.8324 30.5669 10.7035 27.8417 10.7035 25.0001C10.7035 22.1585 11.8324 19.4332 13.8417 17.4239C15.851 15.4146 18.5762 14.2858 21.4178 14.2858V14.2858ZM50 16.0715C48.1056 16.0715 46.2887 16.824 44.9492 18.1636C43.6097 19.5031 42.8571 21.32 42.8571 23.2144C42.8571 25.1088 43.6097 26.9256 44.9492 28.2651C46.2887 29.6047 48.1056 30.3572 50 30.3572C51.8944 30.3572 53.7112 29.6047 55.0507 28.2651C56.3903 26.9256 57.1428 25.1088 57.1428 23.2144C57.1428 21.32 56.3903 19.5031 55.0507 18.1636C53.7112 16.824 51.8944 16.0715 50 16.0715V16.0715ZM78.5821 19.6429C77.8786 19.6429 77.182 19.7815 76.532 20.0507C75.8821 20.3199 75.2915 20.7145 74.794 21.212C74.2966 21.7095 73.902 22.3 73.6327 22.95C73.3635 23.5999 73.225 24.2966 73.225 25.0001C73.225 25.7036 73.3635 26.4002 73.6327 27.0502C73.902 27.7001 74.2966 28.2907 74.794 28.7881C75.2915 29.2856 75.8821 29.6802 76.532 29.9494C77.182 30.2186 77.8786 30.3572 78.5821 30.3572C80.0029 30.3572 81.3655 29.7928 82.3702 28.7881C83.3748 27.7835 83.9392 26.4209 83.9392 25.0001C83.9392 23.5793 83.3748 22.2167 82.3702 21.212C81.3655 20.2073 80.0029 19.6429 78.5821 19.6429V19.6429ZM21.4178 19.6429C20.7143 19.6429 20.0177 19.7815 19.3677 20.0507C18.7178 20.3199 18.1272 20.7145 17.6298 21.212C17.1323 21.7095 16.7377 22.3 16.4685 22.95C16.1992 23.5999 16.0607 24.2966 16.0607 25.0001C16.0607 25.7036 16.1992 26.4002 16.4685 27.0502C16.7377 27.7001 17.1323 28.2907 17.6298 28.7881C18.1272 29.2856 18.7178 29.6802 19.3677 29.9494C20.0177 30.2186 20.7143 30.3572 21.4178 30.3572C22.8386 30.3572 24.2012 29.7928 25.2059 28.7881C26.2106 27.7835 26.775 26.4209 26.775 25.0001C26.775 23.5793 26.2106 22.2167 25.2059 21.212C24.2012 20.2073 22.8386 19.6429 21.4178 19.6429V19.6429Z" fill="white"/>
</svg>
