<svg width="163" height="129" viewBox="0 0 163 129" fill="none" xmlns="http://www.w3.org/2000/svg">
<g clip-path="url(#clip0_163_4158)">
<path d="M120.333 41.6667C120.333 66.6667 103.167 75.0001 82.0001 75.0001C60.8334 75.0001 43.6667 66.6667 43.6667 41.6667C43.6667 18.3334 60.8334 1.66675 82.0001 1.66675C103.167 1.66675 120.333 18.3334 120.333 41.6667Z" fill="#F5F5F5"/>
<path d="M82.0002 1.66675C81.1669 1.66675 80.3336 1.70175 79.5002 1.75508C99.5002 3.01008 115.334 19.2601 115.334 41.6667C115.334 65.6667 99.5002 74.3067 79.5002 74.9551C80.3336 74.9817 81.1669 75.0001 82.0002 75.0001C103.167 75.0001 120.334 66.6667 120.334 41.6667C120.334 18.3334 103.167 1.66675 82.0002 1.66675Z" fill="#CFD8DC"/>
<path d="M95.333 23.3333H68.6663C58.5411 23.3333 50.333 31.5414 50.333 41.6666C50.333 51.7918 58.5411 59.9999 68.6663 59.9999H95.333C105.458 59.9999 113.666 51.7918 113.666 41.6666C113.666 31.5414 105.458 23.3333 95.333 23.3333Z" fill="#607D8B"/>
<path d="M95.3328 23.3333H90.3328C100.458 23.3333 108.666 31.5414 108.666 41.6666C108.666 51.7918 100.458 59.9999 90.3328 59.9999H95.3328C105.458 59.9999 113.666 51.7918 113.666 41.6666C113.666 31.5414 105.458 23.3333 95.3328 23.3333Z" fill="#37474F"/>
<path d="M50.3336 8.33341C52.1745 8.33341 53.6669 6.84103 53.6669 5.00008C53.6669 3.15913 52.1745 1.66675 50.3336 1.66675C48.4926 1.66675 47.0002 3.15913 47.0002 5.00008C47.0002 6.84103 48.4926 8.33341 50.3336 8.33341Z" fill="#02A9F4"/>
<path d="M113.667 8.33341C115.508 8.33341 117 6.84103 117 5.00008C117 3.15913 115.508 1.66675 113.667 1.66675C111.826 1.66675 110.333 3.15913 110.333 5.00008C110.333 6.84103 111.826 8.33341 113.667 8.33341Z" fill="#02A9F4"/>
<path d="M63.6664 75.0002H100.333C104.015 75.0002 107 77.985 107 81.6669V85.0002C107 92.364 101.03 98.3336 93.6664 98.3336H70.3331C62.9693 98.3336 56.9998 92.364 56.9998 85.0002V81.6669C56.9998 77.985 59.9845 75.0002 63.6664 75.0002Z" fill="#F5F5F5"/>
<path d="M100.333 75.0002H95.3334C99.0153 75.0002 102 77.985 102 81.6669V85.0002C102 92.364 96.0305 98.3336 88.6667 98.3336H93.6667C101.031 98.3336 107 92.364 107 85.0002V81.6669C107 77.985 104.015 75.0002 100.333 75.0002Z" fill="#CFD8DC"/>
<path d="M63.6665 43.3335C66.4279 43.3335 68.6665 41.0949 68.6665 38.3335C68.6665 35.5721 66.4279 33.3335 63.6665 33.3335C60.9051 33.3335 58.6665 35.5721 58.6665 38.3335C58.6665 41.0949 60.9051 43.3335 63.6665 43.3335Z" fill="#00BCD4"/>
<path d="M100.333 43.3335C103.095 43.3335 105.333 41.0949 105.333 38.3335C105.333 35.5721 103.095 33.3335 100.333 33.3335C97.5721 33.3335 95.3335 35.5721 95.3335 38.3335C95.3335 41.0949 97.5721 43.3335 100.333 43.3335Z" fill="#00BCD4"/>
<path d="M73.667 75.0002H90.3336V83.3336C90.3336 87.9359 86.6027 91.6669 82.0003 91.6669C77.3979 91.6669 73.667 87.9359 73.667 83.3336V75.0002Z" fill="#9E9E9E"/>
<path d="M85.3336 75.0002V83.3336C85.3243 86.9609 82.9629 90.163 79.5002 91.2436C82.0273 92.088 84.8069 91.6563 86.9588 90.0851C89.1107 88.5139 90.3684 85.9978 90.3336 83.3336V75.0002H85.3336Z" fill="#707070"/>
<path d="M42 41.6669C42 57.7885 48.885 68.5319 62.0767 73.5002C58.1681 74.2646 55.3444 77.6843 55.3333 81.6669V85.0002C55.3434 93.2803 62.0532 99.9901 70.3333 100H93.6666C101.947 99.9901 108.657 93.2803 108.667 85.0002V81.6669C108.656 77.6843 105.832 74.2646 101.923 73.5002C115.115 68.5319 122 57.7885 122 41.6669C122.089 33.3057 119.775 25.0948 115.333 18.0102V9.69354C117.629 8.88181 119.006 6.53409 118.595 4.13398C118.183 1.73387 116.102 -0.0205078 113.667 -0.0205078C111.231 -0.0205078 109.15 1.73387 108.739 4.13398C108.327 6.53409 109.704 8.88181 112 9.69354V13.5269C104.486 4.81201 93.5061 -0.138692 82 0.000204008C70.4936 -0.138276 59.5137 4.81305 52 13.5285V9.6952C54.2959 8.88348 55.6731 6.53576 55.2613 4.13565C54.8495 1.73554 52.7685 -0.0188412 50.3333 -0.0188412C47.8981 -0.0188412 45.8171 1.73554 45.4053 4.13565C44.9935 6.53576 46.3707 8.88348 48.6667 9.6952V18.0119C44.2256 25.096 41.9117 33.3062 42 41.6669V41.6669ZM113.667 3.33354C114.587 3.33354 115.333 4.07973 115.333 5.0002C115.333 5.92068 114.587 6.66687 113.667 6.66687C112.746 6.66687 112 5.92068 112 5.0002C112 4.07973 112.746 3.33354 113.667 3.33354ZM50.3333 3.33354C51.2538 3.33354 52 4.07973 52 5.0002C52 5.92068 51.2538 6.66687 50.3333 6.66687C49.4128 6.66687 48.6667 5.92068 48.6667 5.0002C48.6667 4.07973 49.4128 3.33354 50.3333 3.33354ZM88.6666 76.6669V83.3335C88.6666 87.0154 85.6819 90.0002 82 90.0002C78.3181 90.0002 75.3333 87.0154 75.3333 83.3335V76.6669H88.6666ZM105.333 81.6669V85.0002C105.326 91.4405 100.107 96.6595 93.6666 96.6669H70.3333C63.893 96.6595 58.674 91.4405 58.6667 85.0002V81.6669C58.6667 78.9055 60.9052 76.6669 63.6667 76.6669H72V83.3335C72 88.8564 76.4771 93.3335 82 93.3335C87.5228 93.3335 92 88.8564 92 83.3335V76.6669H100.333C103.095 76.6669 105.333 78.9055 105.333 81.6669ZM82 3.33354C102.903 3.33354 118.667 19.8135 118.667 41.6669C118.667 62.6785 106.333 73.3335 82 73.3335C57.6667 73.3335 45.3333 62.6785 45.3333 41.6669C45.3333 19.8135 61.0967 3.33354 82 3.33354Z" fill="#161719"/>
<path d="M68.667 61.6667H95.3336C106.379 61.6667 115.334 52.7124 115.334 41.6667C115.334 30.6211 106.379 21.6667 95.3336 21.6667H68.667C57.6213 21.6667 48.667 30.6211 48.667 41.6667C48.667 52.7124 57.6213 61.6667 68.667 61.6667ZM68.667 25.0001H95.3336C104.538 25.0001 112 32.462 112 41.6667C112 50.8715 104.538 58.3334 95.3336 58.3334H68.667C59.4622 58.3334 52.0003 50.8715 52.0003 41.6667C52.0003 32.462 59.4622 25.0001 68.667 25.0001Z" fill="#161719"/>
<path d="M76.9997 18.3338H86.9997C87.9202 18.3338 88.6664 17.5876 88.6664 16.6672C88.6664 15.7467 87.9202 15.0005 86.9997 15.0005H76.9997C76.0792 15.0005 75.333 15.7467 75.333 16.6672C75.333 17.5876 76.0792 18.3338 76.9997 18.3338Z" fill="#161719"/>
<path d="M80.3332 13.3336H83.6665C84.587 13.3336 85.3332 12.5874 85.3332 11.6669C85.3332 10.7464 84.587 10.0002 83.6665 10.0002H80.3332C79.4127 10.0002 78.6665 10.7464 78.6665 11.6669C78.6665 12.5874 79.4127 13.3336 80.3332 13.3336Z" fill="#161719"/>
<path d="M63.6664 45.0004C67.3483 45.0004 70.3331 42.0156 70.3331 38.3337C70.3331 34.6518 67.3483 31.667 63.6664 31.667C59.9845 31.667 56.9998 34.6518 56.9998 38.3337C56.9998 42.0156 59.9845 45.0004 63.6664 45.0004ZM63.6664 35.0003C65.5074 35.0003 66.9998 36.4927 66.9998 38.3337C66.9998 40.1746 65.5074 41.667 63.6664 41.667C61.8255 41.667 60.3331 40.1746 60.3331 38.3337C60.3331 36.4927 61.8255 35.0003 63.6664 35.0003Z" fill="#161719"/>
<path d="M100.333 45.0004C104.015 45.0004 107 42.0156 107 38.3337C107 34.6518 104.015 31.667 100.333 31.667C96.651 31.667 93.6663 34.6518 93.6663 38.3337C93.6663 42.0156 96.651 45.0004 100.333 45.0004ZM100.333 35.0003C102.174 35.0003 103.666 36.4927 103.666 38.3337C103.666 40.1746 102.174 41.667 100.333 41.667C98.492 41.667 96.9996 40.1746 96.9996 38.3337C96.9996 36.4927 98.492 35.0003 100.333 35.0003Z" fill="#161719"/>
<path d="M81.9999 85.0003C82.9203 85.0003 83.6665 84.2541 83.6665 83.3336C83.6665 82.4132 82.9203 81.667 81.9999 81.667C81.0794 81.667 80.3333 82.4132 80.3333 83.3336C80.3333 84.2541 81.0794 85.0003 81.9999 85.0003Z" fill="#161719"/>
<line x1="72" y1="50" x2="93" y2="50" stroke="#161719" stroke-width="4" stroke-linecap="round"/>
</g>
<path d="M15.9922 126H12.1445L5.93359 115.199H5.8457C5.87174 115.648 5.89453 116.101 5.91406 116.557C5.93359 117.012 5.95312 117.468 5.97266 117.924C5.99219 118.373 6.01172 118.826 6.03125 119.281V126H3.32617V111.723H7.14453L13.3457 122.416H13.4141C13.401 121.973 13.3848 121.534 13.3652 121.098C13.3457 120.661 13.3262 120.225 13.3066 119.789C13.2936 119.353 13.2806 118.917 13.2676 118.48V111.723H15.9922V126ZM29.2832 120.521C29.2832 121.433 29.1595 122.24 28.9121 122.943C28.6712 123.646 28.3164 124.242 27.8477 124.73C27.3854 125.212 26.8255 125.577 26.168 125.824C25.5169 126.072 24.7812 126.195 23.9609 126.195C23.1927 126.195 22.4863 126.072 21.8418 125.824C21.2038 125.577 20.6471 125.212 20.1719 124.73C19.7031 124.242 19.3385 123.646 19.0781 122.943C18.8242 122.24 18.6973 121.433 18.6973 120.521C18.6973 119.311 18.9121 118.285 19.3418 117.445C19.7715 116.605 20.3835 115.967 21.1777 115.531C21.972 115.095 22.9193 114.877 24.0195 114.877C25.0417 114.877 25.9466 115.095 26.7344 115.531C27.5286 115.967 28.1504 116.605 28.5996 117.445C29.0553 118.285 29.2832 119.311 29.2832 120.521ZM21.7344 120.521C21.7344 121.238 21.8125 121.84 21.9688 122.328C22.125 122.816 22.3691 123.184 22.7012 123.432C23.0332 123.679 23.4661 123.803 24 123.803C24.5273 123.803 24.9538 123.679 25.2793 123.432C25.6113 123.184 25.8522 122.816 26.002 122.328C26.1582 121.84 26.2363 121.238 26.2363 120.521C26.2363 119.799 26.1582 119.2 26.002 118.725C25.8522 118.243 25.6113 117.882 25.2793 117.641C24.9473 117.4 24.5143 117.279 23.9805 117.279C23.1927 117.279 22.6198 117.549 22.2617 118.09C21.9102 118.63 21.7344 119.441 21.7344 120.521ZM49.0195 118.725C49.0195 120.333 48.7103 121.677 48.0918 122.758C47.4798 123.832 46.5911 124.643 45.4258 125.189C44.2604 125.73 42.8574 126 41.2168 126H37.1738V111.723H41.6562C43.1536 111.723 44.4525 111.99 45.5527 112.523C46.653 113.051 47.5059 113.835 48.1113 114.877C48.7168 115.912 49.0195 117.195 49.0195 118.725ZM45.875 118.803C45.875 117.748 45.7188 116.882 45.4062 116.205C45.1003 115.521 44.6445 115.017 44.0391 114.691C43.4401 114.366 42.6979 114.203 41.8125 114.203H40.2012V123.5H41.5C42.9779 123.5 44.0749 123.106 44.791 122.318C45.5137 121.531 45.875 120.359 45.875 118.803ZM56.2168 114.857C57.6816 114.857 58.8047 115.176 59.5859 115.814C60.3672 116.452 60.7578 117.423 60.7578 118.725V126H58.6777L58.1016 124.516H58.0234C57.7109 124.906 57.3919 125.225 57.0664 125.473C56.7409 125.72 56.3665 125.902 55.9434 126.02C55.5202 126.137 55.0059 126.195 54.4004 126.195C53.7559 126.195 53.1764 126.072 52.6621 125.824C52.1543 125.577 51.7539 125.199 51.4609 124.691C51.168 124.177 51.0215 123.526 51.0215 122.738C51.0215 121.579 51.4284 120.727 52.2422 120.18C53.056 119.626 54.2767 119.32 55.9043 119.262L57.7988 119.203V118.725C57.7988 118.152 57.6491 117.732 57.3496 117.465C57.0501 117.198 56.6335 117.064 56.0996 117.064C55.5723 117.064 55.0547 117.139 54.5469 117.289C54.0391 117.439 53.5312 117.628 53.0234 117.855L52.0371 115.844C52.6165 115.538 53.2643 115.297 53.9805 115.121C54.7031 114.945 55.4486 114.857 56.2168 114.857ZM57.7988 120.941L56.6465 120.98C55.6829 121.007 55.0124 121.179 54.6348 121.498C54.2637 121.817 54.0781 122.237 54.0781 122.758C54.0781 123.214 54.2116 123.539 54.4785 123.734C54.7454 123.923 55.0938 124.018 55.5234 124.018C56.1615 124.018 56.6986 123.829 57.1348 123.451C57.5775 123.074 57.7988 122.536 57.7988 121.84V120.941ZM68.4336 123.822C68.7591 123.822 69.0749 123.79 69.3809 123.725C69.6934 123.66 70.0026 123.578 70.3086 123.48V125.697C69.9896 125.84 69.5924 125.958 69.1172 126.049C68.6484 126.146 68.1341 126.195 67.5742 126.195C66.9232 126.195 66.3372 126.091 65.8164 125.883C65.3021 125.668 64.8952 125.3 64.5957 124.779C64.3027 124.252 64.1562 123.52 64.1562 122.582V117.318H62.7305V116.059L64.3711 115.062L65.2305 112.758H67.1348V115.082H70.1914V117.318H67.1348V122.582C67.1348 122.999 67.252 123.311 67.4863 123.52C67.7272 123.721 68.043 123.822 68.4336 123.822ZM76.998 114.857C78.4629 114.857 79.5859 115.176 80.3672 115.814C81.1484 116.452 81.5391 117.423 81.5391 118.725V126H79.459L78.8828 124.516H78.8047C78.4922 124.906 78.1732 125.225 77.8477 125.473C77.5221 125.72 77.1478 125.902 76.7246 126.02C76.3014 126.137 75.7871 126.195 75.1816 126.195C74.5371 126.195 73.9577 126.072 73.4434 125.824C72.9355 125.577 72.5352 125.199 72.2422 124.691C71.9492 124.177 71.8027 123.526 71.8027 122.738C71.8027 121.579 72.2096 120.727 73.0234 120.18C73.8372 119.626 75.0579 119.32 76.6855 119.262L78.5801 119.203V118.725C78.5801 118.152 78.4303 117.732 78.1309 117.465C77.8314 117.198 77.4147 117.064 76.8809 117.064C76.3535 117.064 75.8359 117.139 75.3281 117.289C74.8203 117.439 74.3125 117.628 73.8047 117.855L72.8184 115.844C73.3978 115.538 74.0456 115.297 74.7617 115.121C75.4844 114.945 76.2298 114.857 76.998 114.857ZM78.5801 120.941L77.4277 120.98C76.4642 121.007 75.7936 121.179 75.416 121.498C75.0449 121.817 74.8594 122.237 74.8594 122.758C74.8594 123.214 74.9928 123.539 75.2598 123.734C75.5267 123.923 75.875 124.018 76.3047 124.018C76.9427 124.018 77.4798 123.829 77.916 123.451C78.3587 123.074 78.5801 122.536 78.5801 121.84V120.941ZM93.0234 126H90.0449V111.723H98.2285V114.203H93.0234V117.885H97.8672V120.355H93.0234V126ZM110.709 120.521C110.709 121.433 110.585 122.24 110.338 122.943C110.097 123.646 109.742 124.242 109.273 124.73C108.811 125.212 108.251 125.577 107.594 125.824C106.943 126.072 106.207 126.195 105.387 126.195C104.618 126.195 103.912 126.072 103.268 125.824C102.63 125.577 102.073 125.212 101.598 124.73C101.129 124.242 100.764 123.646 100.504 122.943C100.25 122.24 100.123 121.433 100.123 120.521C100.123 119.311 100.338 118.285 100.768 117.445C101.197 116.605 101.809 115.967 102.604 115.531C103.398 115.095 104.345 114.877 105.445 114.877C106.467 114.877 107.372 115.095 108.16 115.531C108.954 115.967 109.576 116.605 110.025 117.445C110.481 118.285 110.709 119.311 110.709 120.521ZM103.16 120.521C103.16 121.238 103.238 121.84 103.395 122.328C103.551 122.816 103.795 123.184 104.127 123.432C104.459 123.679 104.892 123.803 105.426 123.803C105.953 123.803 106.38 123.679 106.705 123.432C107.037 123.184 107.278 122.816 107.428 122.328C107.584 121.84 107.662 121.238 107.662 120.521C107.662 119.799 107.584 119.2 107.428 118.725C107.278 118.243 107.037 117.882 106.705 117.641C106.373 117.4 105.94 117.279 105.406 117.279C104.618 117.279 104.046 117.549 103.688 118.09C103.336 118.63 103.16 119.441 103.16 120.521ZM123.189 115.082V126H120.904L120.504 124.604H120.348C120.113 124.975 119.82 125.277 119.469 125.512C119.117 125.746 118.73 125.919 118.307 126.029C117.883 126.14 117.444 126.195 116.988 126.195C116.207 126.195 115.527 126.059 114.947 125.785C114.368 125.505 113.915 125.072 113.59 124.486C113.271 123.9 113.111 123.139 113.111 122.201V115.082H116.09V121.459C116.09 122.24 116.23 122.829 116.51 123.227C116.79 123.624 117.236 123.822 117.848 123.822C118.453 123.822 118.928 123.686 119.273 123.412C119.618 123.132 119.859 122.725 119.996 122.191C120.139 121.651 120.211 120.993 120.211 120.219V115.082H123.189ZM132.516 114.877C133.681 114.877 134.618 115.196 135.328 115.834C136.038 116.465 136.393 117.481 136.393 118.881V126H133.414V119.623C133.414 118.842 133.271 118.253 132.984 117.855C132.704 117.458 132.262 117.26 131.656 117.26C130.745 117.26 130.123 117.569 129.791 118.188C129.459 118.806 129.293 119.698 129.293 120.863V126H126.314V115.082H128.59L128.99 116.479H129.156C129.391 116.101 129.68 115.795 130.025 115.561C130.377 115.326 130.764 115.154 131.188 115.043C131.617 114.932 132.06 114.877 132.516 114.877ZM142.916 126.195C141.699 126.195 140.706 125.72 139.938 124.77C139.176 123.812 138.795 122.41 138.795 120.561C138.795 118.692 139.182 117.279 139.957 116.322C140.732 115.359 141.744 114.877 142.994 114.877C143.515 114.877 143.974 114.949 144.371 115.092C144.768 115.235 145.11 115.427 145.396 115.668C145.689 115.909 145.937 116.179 146.139 116.479H146.236C146.197 116.27 146.148 115.964 146.09 115.561C146.038 115.15 146.012 114.73 146.012 114.301V110.805H149V126H146.715L146.139 124.584H146.012C145.823 124.883 145.585 125.157 145.299 125.404C145.019 125.645 144.684 125.837 144.293 125.98C143.902 126.124 143.443 126.195 142.916 126.195ZM143.961 123.822C144.775 123.822 145.348 123.581 145.68 123.1C146.018 122.611 146.197 121.879 146.217 120.902V120.58C146.217 119.519 146.054 118.708 145.729 118.148C145.403 117.582 144.798 117.299 143.912 117.299C143.255 117.299 142.74 117.582 142.369 118.148C141.998 118.715 141.812 119.532 141.812 120.6C141.812 121.667 141.998 122.471 142.369 123.012C142.747 123.552 143.277 123.822 143.961 123.822ZM159.811 121.264H157.428L156.93 111.723H160.309L159.811 121.264ZM156.891 124.604C156.891 123.992 157.057 123.562 157.389 123.314C157.727 123.067 158.134 122.943 158.609 122.943C159.072 122.943 159.469 123.067 159.801 123.314C160.139 123.562 160.309 123.992 160.309 124.604C160.309 125.189 160.139 125.613 159.801 125.873C159.469 126.133 159.072 126.264 158.609 126.264C158.134 126.264 157.727 126.133 157.389 125.873C157.057 125.613 156.891 125.189 156.891 124.604Z" fill="black"/>
<defs>
<clipPath id="clip0_163_4158">
<rect width="100" height="100" fill="white" transform="translate(32)"/>
</clipPath>
</defs>
</svg>
