<?xml version="1.0" encoding="UTF-8"?>
<svg width="22px" height="23px" viewBox="0 0 22 23" version="1.1" xmlns="http://www.w3.org/2000/svg" xmlns:xlink="http://www.w3.org/1999/xlink">
    <!-- Generator: sketchtool 59.1 (101010) - https://sketch.com -->
    <title>ECD715B2-F72D-4FAC-823E-206534BE310B@1x</title>
    <desc>Created with sketchtool.</desc>
    <defs>
        <path d="M0,12 L0,4 C0,1.790861 1.790861,0 4,0 L14,0 C16.209139,0 18,1.790861 18,4 L18,12 L10.4142136,18.5857864 C9.63316498,19.366835 8.36683502,19.366835 7.58578644,18.5857864 L0,12 Z" id="path-1"></path>
        <filter x="-19.4%" y="-13.0%" width="138.9%" height="136.5%" filterUnits="objectBoundingBox" id="filter-2">
            <feOffset dx="0" dy="1" in="SourceAlpha" result="shadowOffsetOuter1"></feOffset>
            <feGaussianBlur stdDeviation="1" in="shadowOffsetOuter1" result="shadowBlurOuter1"></feGaussianBlur>
            <feComposite in="shadowBlurOuter1" in2="SourceAlpha" operator="out" result="shadowBlurOuter1"></feComposite>
            <feColorMatrix values="0 0 0 0 0   0 0 0 0 0   0 0 0 0 0  0 0 0 0.0862379808 0" type="matrix" in="shadowBlurOuter1"></feColorMatrix>
        </filter>
    </defs>
    <g id="Page-1" stroke="none" stroke-width="1" fill="none" fill-rule="evenodd">
        <g id="RWRK_Table_matrix" transform="translate(-1018.000000, -44.000000)">
            <g id="Group-10" transform="translate(1020.000000, 45.000000)">
                <g id="handle-1">
                    <use fill="black" fill-opacity="1" filter="url(#filter-2)" xlink:href="#path-1"></use>
                    <path stroke="#A5A5A5" stroke-width="1" d="M0.5,11.7719826 L7.93933983,18.232233 C8.52512627,18.8180195 9.47487373,18.8180195 10.0864233,18.2082238 L17.5,11.7719455 L17.5,4 C17.5,2.06700338 15.9329966,0.5 14,0.5 L4,0.5 C2.06700338,0.5 0.5,2.06700338 0.5,4 L0.5,11.7719826 Z" stroke-linejoin="square" fill="#FFFFFF" fill-rule="evenodd"></path>
                </g>
            </g>
        </g>
    </g>
</svg>