<?xml version="1.0" encoding="UTF-8"?>
<!DOCTYPE svg PUBLIC "-//W3C//DTD SVG 1.1//EN" "http://www.w3.org/Graphics/SVG/1.1/DTD/svg11.dtd">
<!-- Creator: CorelDRAW X6 -->
<svg xmlns="http://www.w3.org/2000/svg" xml:space="preserve" width="85mm" height="85mm" version="1.1" style="shape-rendering:geometricPrecision; text-rendering:geometricPrecision; image-rendering:optimizeQuality; fill-rule:evenodd; clip-rule:evenodd"
viewBox="0 0 8509 8509"
 xmlns:xlink="http://www.w3.org/1999/xlink">
 <defs>
  <style type="text/css">
   <![CDATA[
    .str0 {stroke:#9D9E9E;stroke-width:70.6368}
    .fil2 {fill:none}
    .fil5 {fill:#727271}
    .fil4 {fill:#9D9E9E}
    .fil7 {fill:#C5C6C6}
    .fil1 {fill:#2D9BAB}
    .fil8 {fill:#727271;fill-rule:nonzero}
    .fil3 {fill:#9D9E9E;fill-rule:nonzero}
    .fil6 {fill:#7E7E8E;fill-opacity:0.819608}
    .fil0 {fill:url(#id47)}
   ]]>
  </style>
   <clipPath id="id0">
    <path d="M0 18l8509 -18 0 8509 -8509 -16 0 -8475z"/>
   </clipPath>
     <clipPath id="id1">
      <path d="M3312 5898l1240 0 0 900 -1240 0 0 -900z"/>
     </clipPath>
     <clipPath id="id2">
      <path d="M0 18l8509 -18 0 8509 -8509 -16 0 -8475z"/>
     </clipPath>
      <mask id="id3">
  <linearGradient id="id4" gradientUnits="userSpaceOnUse" x1="6159.65" y1="3475.78" x2="5840.72" y2="2842.25">
   <stop offset="0" style="stop-opacity:1; stop-color:white"/>
   <stop offset="1" style="stop-opacity:0; stop-color:white"/>
  </linearGradient>
       <rect style="fill:url(#id4)" x="5639" y="2562" width="723" height="1193"/>
      </mask>
      <mask id="id5">
  <linearGradient id="id6" gradientUnits="userSpaceOnUse" x1="6716.68" y1="2812.47" x2="6386.46" y2="2571.1">
   <stop offset="0" style="stop-opacity:1; stop-color:white"/>
   <stop offset="1" style="stop-opacity:0; stop-color:white"/>
  </linearGradient>
       <rect style="fill:url(#id6)" x="5971" y="2307" width="1161" height="770"/>
      </mask>
       <mask id="id7">
  <linearGradient id="id8" gradientUnits="userSpaceOnUse" x1="6064.03" y1="2333.48" x2="5992.01" y2="2249.23">
   <stop offset="0" style="stop-opacity:1; stop-color:white"/>
   <stop offset="1" style="stop-opacity:0; stop-color:white"/>
  </linearGradient>
        <rect style="fill:url(#id8)" x="5985" y="2254" width="85" height="74"/>
       </mask>
       <mask id="id9">
  <linearGradient id="id10" gradientUnits="userSpaceOnUse" x1="6373.59" y1="3050.43" x2="6014.4" y2="2630.23">
   <stop offset="0" style="stop-opacity:1; stop-color:white"/>
   <stop offset="1" style="stop-opacity:0; stop-color:white"/>
  </linearGradient>
        <rect style="fill:url(#id10)" x="5826" y="2481" width="736" height="719"/>
       </mask>
       <mask id="id11">
  <linearGradient id="id12" gradientUnits="userSpaceOnUse" x1="6229.37" y1="2669.31" x2="6069.78" y2="2482.61">
   <stop offset="0" style="stop-opacity:1; stop-color:white"/>
   <stop offset="1" style="stop-opacity:0; stop-color:white"/>
  </linearGradient>
        <rect style="fill:url(#id12)" x="6093" y="2463" width="114" height="227"/>
       </mask>
       <mask id="id13">
  <linearGradient id="id14" gradientUnits="userSpaceOnUse" x1="6020.31" y1="2854.77" x2="5863.3" y2="2671.09">
   <stop offset="0" style="stop-opacity:1; stop-color:white"/>
   <stop offset="1" style="stop-opacity:0; stop-color:white"/>
  </linearGradient>
        <rect style="fill:url(#id14)" x="5838" y="2692" width="208" height="141"/>
       </mask>
       <mask id="id15">
  <linearGradient id="id16" gradientUnits="userSpaceOnUse" x1="6086.2" y1="2722.44" x2="6004.95" y2="2627.4">
   <stop offset="0" style="stop-opacity:1; stop-color:white"/>
   <stop offset="1" style="stop-opacity:0; stop-color:white"/>
  </linearGradient>
        <rect style="fill:url(#id16)" x="5999" y="2632" width="93" height="86"/>
       </mask>
       <mask id="id17">
  <linearGradient id="id18" gradientUnits="userSpaceOnUse" x1="5766.07" y1="2355.45" x2="5685.96" y2="2261.75">
   <stop offset="0" style="stop-opacity:1; stop-color:white"/>
   <stop offset="1" style="stop-opacity:0; stop-color:white"/>
  </linearGradient>
        <rect style="fill:url(#id18)" x="5680" y="2266" width="92" height="85"/>
       </mask>
       <mask id="id19">
  <linearGradient id="id20" gradientUnits="userSpaceOnUse" x1="6053.05" y1="2685.53" x2="5974.64" y2="2593.81">
   <stop offset="0" style="stop-opacity:1; stop-color:white"/>
   <stop offset="1" style="stop-opacity:0; stop-color:white"/>
  </linearGradient>
        <rect style="fill:url(#id20)" x="5969" y="2598" width="89" height="84"/>
       </mask>
       <mask id="id21">
  <linearGradient id="id22" gradientUnits="userSpaceOnUse" x1="5797.48" y1="2392.2" x2="5719.76" y2="2301.26">
   <stop offset="0" style="stop-opacity:1; stop-color:white"/>
   <stop offset="1" style="stop-opacity:0; stop-color:white"/>
  </linearGradient>
        <rect style="fill:url(#id22)" x="5714" y="2305" width="88" height="83"/>
       </mask>
       <mask id="id23">
  <linearGradient id="id24" gradientUnits="userSpaceOnUse" x1="6019.73" y1="2645.8" x2="5944.75" y2="2558.08">
   <stop offset="0" style="stop-opacity:1; stop-color:white"/>
   <stop offset="1" style="stop-opacity:0; stop-color:white"/>
  </linearGradient>
        <rect style="fill:url(#id24)" x="5939" y="2562" width="86" height="79"/>
       </mask>
       <mask id="id25">
  <linearGradient id="id26" gradientUnits="userSpaceOnUse" x1="5826.32" y1="2425.1" x2="5752.1" y2="2338.26">
   <stop offset="0" style="stop-opacity:1; stop-color:white"/>
   <stop offset="1" style="stop-opacity:0; stop-color:white"/>
  </linearGradient>
        <rect style="fill:url(#id26)" x="5747" y="2343" width="85" height="78"/>
       </mask>
       <mask id="id27">
  <linearGradient id="id28" gradientUnits="userSpaceOnUse" x1="5987.79" y1="2609.55" x2="5913.91" y2="2523.11">
   <stop offset="0" style="stop-opacity:1; stop-color:white"/>
   <stop offset="1" style="stop-opacity:0; stop-color:white"/>
  </linearGradient>
        <rect style="fill:url(#id28)" x="5909" y="2527" width="84" height="79"/>
       </mask>
       <mask id="id29">
  <linearGradient id="id30" gradientUnits="userSpaceOnUse" x1="5858.18" y1="2461.2" x2="5785.42" y2="2376.08">
   <stop offset="0" style="stop-opacity:1; stop-color:white"/>
   <stop offset="1" style="stop-opacity:0; stop-color:white"/>
  </linearGradient>
        <rect style="fill:url(#id30)" x="5781" y="2380" width="83" height="78"/>
       </mask>
       <mask id="id31">
  <linearGradient id="id32" gradientUnits="userSpaceOnUse" x1="5953.14" y1="2571.33" x2="5880.8" y2="2486.69">
   <stop offset="0" style="stop-opacity:1; stop-color:white"/>
   <stop offset="1" style="stop-opacity:0; stop-color:white"/>
  </linearGradient>
        <rect style="fill:url(#id32)" x="5876" y="2490" width="82" height="78"/>
       </mask>
       <mask id="id33">
  <linearGradient id="id34" gradientUnits="userSpaceOnUse" x1="5890.66" y1="2497.67" x2="5819.47" y2="2414.37">
   <stop offset="0" style="stop-opacity:1; stop-color:white"/>
   <stop offset="1" style="stop-opacity:0; stop-color:white"/>
  </linearGradient>
        <rect style="fill:url(#id34)" x="5815" y="2418" width="81" height="76"/>
       </mask>
       <mask id="id35">
  <linearGradient id="id36" gradientUnits="userSpaceOnUse" x1="5922.39" y1="2535.38" x2="5851.97" y2="2453.01">
   <stop offset="0" style="stop-opacity:1; stop-color:white"/>
   <stop offset="1" style="stop-opacity:0; stop-color:white"/>
  </linearGradient>
        <rect style="fill:url(#id36)" x="5847" y="2457" width="80" height="75"/>
       </mask>
       <mask id="id37">
  <linearGradient id="id38" gradientUnits="userSpaceOnUse" x1="5922.72" y1="2536.39" x2="5850.44" y2="2451.86">
   <stop offset="0" style="stop-opacity:1; stop-color:white"/>
   <stop offset="1" style="stop-opacity:0; stop-color:white"/>
  </linearGradient>
        <rect style="fill:url(#id38)" x="5846" y="2456" width="82" height="77"/>
       </mask>
       <mask id="id39">
  <linearGradient id="id40" gradientUnits="userSpaceOnUse" x1="5891.97" y1="2498.71" x2="5818.33" y2="2412.57">
   <stop offset="0" style="stop-opacity:1; stop-color:white"/>
   <stop offset="1" style="stop-opacity:0; stop-color:white"/>
  </linearGradient>
        <rect style="fill:url(#id40)" x="5813" y="2416" width="84" height="78"/>
       </mask>
       <mask id="id41">
  <linearGradient id="id42" gradientUnits="userSpaceOnUse" x1="6039.14" y1="2722.37" x2="6002.73" y2="2679.76">
   <stop offset="0" style="stop-opacity:1; stop-color:white"/>
   <stop offset="1" style="stop-opacity:0; stop-color:white"/>
  </linearGradient>
        <rect style="fill:url(#id42)" x="5998" y="2683" width="46" height="35"/>
       </mask>
       <mask id="id43">
  <linearGradient id="id44" gradientUnits="userSpaceOnUse" x1="6345.08" y1="2586.56" x2="6329.1" y2="2567.88">
   <stop offset="0" style="stop-opacity:1; stop-color:white"/>
   <stop offset="1" style="stop-opacity:0; stop-color:white"/>
  </linearGradient>
        <rect style="fill:url(#id44)" x="6324" y="2570" width="27" height="15"/>
       </mask>
       <mask id="id45">
  <linearGradient id="id46" gradientUnits="userSpaceOnUse" x1="6084.75" y1="2492.28" x2="6066.84" y2="2471.32">
   <stop offset="0" style="stop-opacity:1; stop-color:white"/>
   <stop offset="1" style="stop-opacity:0; stop-color:white"/>
  </linearGradient>
        <rect style="fill:url(#id46)" x="6070" y="2468" width="11" height="27"/>
       </mask>
  <radialGradient id="id47" gradientUnits="userSpaceOnUse" cx="4254.63" cy="4254.63" r="4254.63" fx="4254.63" fy="4254.63">
   <stop offset="0" style="stop-color:#FEFEFE"/>
   <stop offset="0.619608" style="stop-color:#95CCD4"/>
   <stop offset="1" style="stop-color:#2D9BAB"/>
  </radialGradient>
 </defs>
 <g id="Layer_x0020_1">
  <metadata id="CorelCorpID_0Corel-Layer"/>
  <polygon class="fil0" points="0,18 8509,0 8509,8509 0,8493 "/>
  <g style="clip-path:url(#id0)">
   <g id="_920774800">
    <g>
     <path id="1" class="fil1" d="M4051 3176c-35,-79 -80,-490 -105,-630 -44,-237 -101,-502 -355,-591 -466,-163 -958,230 -1171,455l-124 140c-6,8 -14,20 -22,30 -801,979 -1083,2472 -1031,3694 21,487 131,1095 660,1235 222,59 444,17 629,-113l98 -82c36,-37 78,-83 103,-124l150 -232c50,-74 88,-156 139,-230l14 -23c38,-67 97,-143 141,-198 1,-2 5,-7 7,-9 59,-75 123,-140 199,-199 5,-4 9,-7 13,-10l47 -35c11,-8 18,-13 31,-21l176 -91c-331,-12 -626,313 -800,527 -102,126 -204,248 -325,337 -150,110 -319,168 -499,74 -443,-232 -410,-1148 -378,-1593l67 -599c8,-61 20,-126 31,-185 6,-33 11,-62 18,-96 6,-30 12,-64 19,-92 14,-58 27,-116 42,-177l218 -668c54,-134 115,-265 191,-388l209 -318c62,-98 140,-178 213,-267 1,-1 2,-3 3,-4l231 -228c5,-4 8,-6 13,-10l136 -99c1,-1 3,-2 5,-3 122,-78 303,-147 445,-98 195,68 218,372 265,618 33,174 44,373 157,508 22,26 46,43 77,55l81 12c62,0 109,-23 156,-64 30,-25 53,-62 69,-97l39 -125c14,-69 11,-943 9,-1139 -1,-132 -8,-911 3,-1038 -48,-9 -104,-7 -150,-9 -160,-9 -135,576 -128,919 11,503 3,485 4,987 0,48 12,249 -19,292z"/>
     <path class="fil1" d="M4563 2964c14,-159 34,-307 88,-445l68 -125c4,-6 5,-7 10,-14 32,-43 72,-76 119,-99l61 -29c203,-63 388,17 553,115 257,153 515,482 685,728 312,450 470,974 591,1529 106,483 327,1980 -145,2390 -141,122 -352,156 -537,59 -125,-65 -206,-151 -285,-252l-158 -192c-33,-40 -49,-57 -81,-91 -60,-63 -111,-119 -185,-173l-106 -74c-96,-63 -265,-143 -382,-145 61,55 214,73 441,416 57,86 105,176 158,271 51,92 102,182 155,265 77,121 154,201 255,278 22,16 41,31 62,44 154,91 339,125 525,111 151,-12 231,-39 341,-103 41,-24 79,-58 114,-90l132 -177c51,-93 94,-182 121,-284 2,-6 3,-12 5,-18 7,-27 15,-58 22,-84l33 -174c4,-25 9,-64 13,-95l22 -293c18,-586 -36,-1118 -149,-1653l-17 -71c-56,-211 -94,-365 -163,-582 -59,-185 -134,-368 -217,-542 -69,-143 -147,-279 -227,-412l-61 -97c-115,-175 -261,-352 -405,-499 -201,-205 -703,-620 -1184,-380 -179,89 -281,286 -321,529 -22,132 -26,265 -22,407 2,64 13,342 41,385l26 -335z"/>
    </g>
    <g>
     <ellipse class="fil2 str0" cx="2699" cy="4515" rx="205" ry="204"/>
     <ellipse class="fil2 str0" cx="5184" cy="6836" rx="252" ry="251"/>
     <g>
      <path class="fil3" d="M4866 4614l52 -45 1 1 1 1 1 1 1 1 1 2 1 2 1 2 1 2 0 2 0 2 0 2 0 2 0 2 0 2 0 2 0 2 0 2 0 2 0 2 0 2 0 2 -1 2 -1 2 -1 2 -1 1 -1 1 -1 1 -1 1 -1 1 -1 1 -1 1 -1 1 -1 1 -1 1 -1 1 -1 1 -2 1 -2 1 -2 1 -2 1 -2 0 -2 0 -2 0 -2 0 -2 0 -2 0 -2 0 -2 0 -2 0 -2 0 -2 0 -2 0 -2 0 -2 -1 -2 -1 -2 -1 -2 -1 -1 -1 -1 -1 -1 -1 -1 -1 -1 -1 -1 -1 -1 -1zm-1761 468l3 -68 -35 29 16 -82 22 -79 27 -75 32 -71 36 -67 41 -63 45 -58 49 -54 52 -50 55 -46 58 -41 61 -37 63 -32 65 -28 67 -23 69 -19 70 -14 71 -10 72 -5 72 0 72 5 72 9 72 14 71 19 70 24 69 29 68 34 66 39 64 44 62 49 59 54 56 59 -52 45 -53 -56 -55 -51 -58 -46 -60 -41 -62 -36 -63 -32 -65 -27 -66 -22 -67 -18 -67 -13 -68 -9 -68 -4 -68 0 -67 5 -66 9 -65 13 -64 17 -63 22 -61 26 -59 30 -57 34 -54 38 -51 42 -48 46 -45 50 -42 54 -38 58 -34 62 -30 66 -25 70 -20 74 -15 78 -35 29zm-33 -40l68 11 0 2 0 2 0 2 -1 2 -1 2 -1 2 -1 1 -1 1 -1 1 -1 1 -1 1 -1 1 -1 1 -1 1 -1 1 -1 1 -1 1 -1 1 -1 1 -1 1 -2 1 -2 1 -2 1 -2 0 -2 0 -2 0 -2 0 -2 0 -2 0 -2 0 -2 0 -2 0 -2 0 -2 0 -2 0 -2 -1 -2 -1 -2 -1 -2 -1 -1 -1 -1 -1 -1 -1 -1 -1 -1 -1 -1 -1 -1 -1 -1 -1 -1 -1 -1 -1 -1 -1 -1 -1 -1 -1 -1 -2 -1 -2 -1 -2 0 -2 0 -2 0 -2 0 -2 0 -2 0 -2 0 -2 0 -2 0 -2zm0 1178l29 62 -79 30 -78 19 -76 8 -73 -2 -70 -12 -66 -21 -62 -29 -58 -36 -54 -43 -49 -49 -44 -54 -38 -58 -33 -62 -27 -65 -21 -67 -15 -69 -8 -70 -2 -70 6 -70 13 -69 21 -67 29 -65 38 -62 47 -58 56 -53 65 -47 74 -41 83 -34 93 -26 102 -18 112 -9 122 0 -3 68 -117 0 -106 9 -96 17 -85 24 -76 31 -66 37 -57 42 -49 47 -41 51 -33 54 -26 57 -19 60 -12 62 -5 63 1 64 8 63 14 63 19 61 25 59 30 56 35 53 39 48 44 44 48 38 51 32 54 25 58 18 60 10 63 2 66 -7 69 -17 71 -27zm29 62l-29 -62 2 -1 2 -1 2 -1 2 0 2 0 2 0 2 0 2 0 2 0 2 0 2 0 2 0 2 0 2 0 2 0 2 1 2 1 2 1 1 1 1 1 1 1 1 1 1 1 1 1 1 1 1 1 1 1 1 1 1 1 1 1 1 2 1 2 1 2 1 2 1 2 0 2 0 2 0 2 0 2 0 2 0 2 0 2 0 2 0 2 0 2 0 2 0 2 -1 2 -1 2 -1 2 -1 1 -1 1 -1 1 -1 1 -1 1 -1 1 -1 1 -1 1 -1 1 -1 1 -1 1 -1 1 -2 1 -2 1z"/>
     </g>
     <g>
      <path class="fil3" d="M6029 5445l-69 1 0 -2 0 -2 0 -2 0 -2 0 -2 0 -2 1 -2 1 -2 1 -2 1 -1 1 -1 1 -1 1 -1 1 -1 1 -1 1 -1 1 -1 1 -1 1 -1 1 -1 1 -1 1 -1 1 -1 2 -1 2 -1 2 -1 2 0 2 0 2 0 2 0 2 0 2 0 2 0 2 0 2 0 2 0 2 0 2 0 2 1 2 1 2 1 1 1 1 1 1 1 1 1 1 1 1 1 1 1 1 1 1 1 1 1 1 1 1 1 1 1 1 1 1 2 1 2 1 2 0 2 0 2 0 2 0 2 0 2 0 2zm-1251 869l10 -68 52 7 52 5 52 3 53 1 53 0 52 -2 52 -4 52 -6 51 -8 50 -10 50 -12 49 -14 47 -16 46 -18 45 -21 43 -23 41 -25 39 -27 38 -29 35 -31 33 -34 31 -36 29 -38 26 -41 23 -43 21 -46 18 -48 15 -51 11 -54 8 -57 5 -59 1 -62 69 -1 -1 66 -5 64 -9 61 -12 58 -16 56 -19 53 -23 50 -26 48 -29 45 -31 42 -34 40 -37 37 -39 34 -41 32 -43 29 -45 27 -46 24 -48 22 -49 20 -50 17 -52 15 -52 13 -53 11 -54 9 -54 6 -55 4 -55 2 -55 0 -55 -2 -55 -3 -55 -5 -54 -7zm10 -68l-10 68 -2 0 -2 0 -2 0 -2 -1 -2 -1 -2 -1 -2 -1 -1 -1 -1 -1 -1 -1 -1 -1 -1 -1 -1 -1 -1 -1 -1 -1 -1 -1 -1 -1 -1 -1 -1 -1 -1 -1 -1 -2 -1 -2 -1 -2 0 -2 0 -2 0 -2 0 -2 0 -2 0 -2 0 -2 0 -2 0 -2 0 -2 0 -2 0 -2 1 -2 1 -2 1 -2 1 -1 1 -1 1 -1 1 -1 1 -1 1 -1 1 -1 1 -1 1 -1 1 -1 1 -1 1 -1 1 -1 1 -1 2 -1 2 -1 2 -1 2 0 2 0 2 0 2 0 2 0 2 0 2 0 2 0 2 0z"/>
     </g>
     <g>
      <path class="fil3" d="M6217 4538l-1053 0 0 -41 1053 0 21 21 -21 21zm0 0l0 -41 1 0 1 0 1 0 1 0 1 0 1 0 1 0 1 0 1 0 1 0 1 0 1 1 1 1 1 1 1 1 1 1 1 1 1 1 1 1 1 1 1 1 1 1 0 1 0 1 0 1 0 1 0 1 0 1 0 1 0 1 0 1 0 1 0 1 0 1 0 1 0 1 0 1 0 1 0 1 0 1 0 1 0 1 -1 1 -1 1 -1 1 -1 1 -1 1 -1 1 -1 1 -1 1 -1 1 -1 1 -1 1 -1 0 -1 0 -1 0 -1 0 -1 0 -1 0 -1 0 -1 0 -1 0 -1 0 -1 0zm-21 657l0 -678 41 0 0 678 -21 21 -21 -21zm0 0l41 0 0 1 0 1 0 1 0 1 0 1 0 1 0 1 0 1 0 1 0 1 -1 1 -1 1 -1 1 -1 1 -1 1 -1 1 -1 1 -1 1 -1 1 -1 1 -1 1 -1 0 -1 0 -1 0 -1 0 -1 0 -1 0 -1 0 -1 0 -1 0 -1 0 -1 0 -1 0 -1 0 -1 0 -1 0 -1 0 -1 0 -1 0 -1 0 -1 0 -1 0 -1 0 -1 -1 -1 -1 -1 -1 -1 -1 -1 -1 -1 -1 -1 -1 -1 -1 -1 -1 -1 -1 -1 -1 0 -1 0 -1 0 -1 0 -1 0 -1 0 -1 0 -1 0 -1 0 -1 0 -1zm-602 -21l623 0 0 41 -623 0 -17 -33 17 -8zm0 0l0 41 -1 0 -1 0 -1 0 -1 0 -1 0 -1 0 -1 0 -1 0 -1 0 -1 0 -1 0 -1 -1 -1 -1 -1 -1 -1 -1 -1 -1 -1 -1 -1 -1 -1 -1 -1 -1 -1 -1 -1 -1 0 -1 0 -1 0 -1 0 -1 0 -1 0 -1 0 -1 0 -1 0 -1 0 -1 0 -1 0 -1 0 -1 0 -1 0 -1 0 -1 0 -1 0 -1 0 -1 0 -1 1 -1 1 -1 1 -1 1 -1 1 -1 1 -1 1 -1 1 -1 1 -1 1 -1 1 -1 1 0 1 0 1 0 1 0 1 0 1 0 1 0 1 0 1 0 1 0 1 0zm-282 363l266 -354 33 25 -266 354 -37 -11 4 -14zm0 0l33 25 -1 1 -1 1 -1 1 -1 1 -1 1 -1 1 -1 1 -1 1 -1 0 -1 0 -1 0 -1 0 -1 0 -1 0 -1 0 -1 0 -1 0 -1 0 -1 0 -1 0 -1 0 -1 0 -1 0 -1 0 -1 0 -1 0 -1 0 -1 0 -1 0 -1 -1 -1 -1 -1 -1 -1 -1 -1 -1 -1 -1 -1 -1 -1 -1 -1 -1 -1 -1 -1 -1 0 -1 0 -1 0 -1 0 -1 0 -1 0 -1 0 -1 0 -1 0 -1 0 -1 0 -1 0 -1 0 -1 0 -1 0 -1 0 -1 0 -1 0 -1 0 -1 0 -1 0 -1 1 -1 1 -1 1 -1zm16 -343l21 354 -41 2 -21 -354 21 -22 21 19zm0 0l-41 2 0 -1 0 -1 0 -1 0 -1 0 -1 0 -1 0 -1 0 -1 0 -1 0 -1 0 -1 0 -1 1 -1 1 -1 1 -1 1 -1 1 -1 1 -1 1 -1 1 -1 1 -1 1 -1 1 -1 1 0 1 0 1 0 1 0 1 0 1 0 1 0 1 0 1 0 1 0 1 0 1 0 1 0 1 0 1 0 1 0 1 0 1 0 1 0 1 0 1 0 1 1 1 1 1 1 1 1 1 1 1 1 1 1 1 1 1 1 1 1 1 1 0 1 0 1 0 1 0 1 0 1 0 1 0 1 0 1 0 1zm-164 -19l143 0 0 41 -143 0 -21 -21 21 -21zm0 0l0 41 -1 0 -1 0 -1 0 -1 0 -1 0 -1 0 -1 0 -1 0 -1 0 -1 0 -1 0 -1 -1 -1 -1 -1 -1 -1 -1 -1 -1 -1 -1 -1 -1 -1 -1 -1 -1 -1 -1 -1 -1 0 -1 0 -1 0 -1 0 -1 0 -1 0 -1 0 -1 0 -1 0 -1 0 -1 0 -1 0 -1 0 -1 0 -1 0 -1 0 -1 0 -1 0 -1 0 -1 0 -1 1 -1 1 -1 1 -1 1 -1 1 -1 1 -1 1 -1 1 -1 1 -1 1 -1 1 -1 1 0 1 0 1 0 1 0 1 0 1 0 1 0 1 0 1 0 1 0 1 0zm21 -657l0 678 -41 0 0 -678 21 -21 21 21zm0 0l-41 0 0 -1 0 -1 0 -1 0 -1 0 -1 0 -1 0 -1 0 -1 0 -1 0 -1 1 -1 1 -1 1 -1 1 -1 1 -1 1 -1 1 -1 1 -1 1 -1 1 -1 1 -1 1 0 1 0 1 0 1 0 1 0 1 0 1 0 1 0 1 0 1 0 1 0 1 0 1 0 1 0 1 0 1 0 1 0 1 0 1 0 1 0 1 0 1 0 1 1 1 1 1 1 1 1 1 1 1 1 1 1 1 1 1 1 1 1 1 1 0 1 0 1 0 1 0 1 0 1 0 1 0 1 0 1 0 1 0 1z"/>
     </g>
     <rect class="fil4" x="5400" y="4780" width="170" height="169"/>
     <rect class="fil4" x="5618" y="4780" width="170" height="169"/>
     <rect class="fil4" x="5835" y="4780" width="170" height="169"/>
     <g>
     </g>
    </g>
    <g style="clip-path:url(#id1)">
     <g>
      <g>
       <path class="fil3" d="M3217 6725l44 53 -1 1 -1 1 -1 1 -2 1 -2 1 -2 1 -2 1 -2 1 -2 0 -2 0 -2 0 -2 0 -2 0 -2 0 -2 0 -2 0 -2 0 -2 0 -2 0 -2 0 -2 -1 -2 -1 -2 -1 -2 -1 -1 -1 -1 -1 -1 -1 -1 -1 -1 -1 -1 -1 -1 -1 -1 -1 -1 -1 -1 -1 -1 -1 -1 -1 -1 -2 -1 -2 -1 -2 -1 -2 0 -2 0 -2 0 -2 0 -2 0 -2 0 -2 0 -2 0 -2 0 -2 0 -2 0 -2 0 -2 1 -2 1 -2 1 -2 1 -1 1 -1 1 -1 1 -1 1 -1 1 -1 1 -1 1 -1 1 -1zm567 -371l-523 424 -44 -53 523 -424 48 5 -5 48zm0 0l-44 -53 1 -1 1 -1 1 -1 2 -1 2 -1 2 -1 2 -1 2 -1 2 0 2 0 2 0 2 0 2 0 2 0 2 0 2 0 2 0 2 0 2 0 2 0 2 1 2 1 2 1 2 1 1 1 1 1 1 1 1 1 1 1 1 1 1 1 1 1 1 1 1 1 1 1 1 1 1 2 1 2 1 2 1 2 0 2 0 2 0 2 0 2 0 2 0 2 0 2 0 2 0 2 0 2 0 2 0 2 -1 2 -1 2 -1 2 -1 1 -1 1 -1 1 -1 1 -1 1 -1 1 -1 1 -1 1 -1 1zm400 528l-448 -532 53 -44 448 532 -53 44zm0 0l53 -44 1 1 1 1 1 1 1 1 1 2 1 2 1 2 1 2 0 2 0 2 0 2 0 2 0 2 0 2 0 2 0 2 0 2 0 2 0 2 0 2 -1 2 -1 2 -1 2 -1 1 -1 1 -1 1 -1 1 -1 1 -1 1 -1 1 -1 1 -1 1 -1 1 -1 1 -1 1 -1 1 -2 1 -2 1 -2 1 -2 1 -2 0 -2 0 -2 0 -2 0 -2 0 -2 0 -2 0 -2 0 -2 0 -2 0 -2 0 -2 0 -2 0 -2 -1 -2 -1 -2 -1 -1 -1 -1 -1 -1 -1 -1 -1 -1 -1 -1 -1 -1 -1 -1 -1z"/>
      </g>
      <g>
       <path class="fil3" d="M3968 6538l47 50 -1 1 -1 1 -1 1 -1 1 -1 1 -2 1 -2 1 -2 1 -2 1 -2 0 -2 0 -2 0 -2 0 -2 0 -2 0 -2 0 -2 0 -2 0 -2 0 -2 0 -2 0 -2 0 -2 -1 -2 -1 -2 -1 -1 -1 -1 -1 -1 -1 -1 -1 -1 -1 -1 -1 -1 -1 -1 -1 -1 -1 -1 -1 -1 -1 -1 -1 -1 -2 -1 -2 -1 -2 -1 -2 0 -2 0 -2 0 -2 0 -2 0 -2 0 -2 0 -2 0 -2 0 -2 0 -2 0 -2 0 -2 0 -2 1 -2 1 -2 1 -2 1 -1 1 -1 1 -1 1 -1 1 -1 1 -1 1 -1zm230 -119l-183 169 -47 -50 183 -169 48 1 -1 50zm0 0l-47 -50 1 -1 1 -1 1 -1 1 -1 1 -1 2 -1 2 -1 2 -1 2 -1 2 0 2 0 2 0 2 0 2 0 2 0 2 0 2 0 2 0 2 0 2 0 2 0 2 0 2 1 2 1 2 1 1 1 1 1 1 1 1 1 1 1 1 1 1 1 1 1 1 1 1 1 1 1 1 1 1 2 1 2 1 2 1 2 0 2 0 2 0 2 0 2 0 2 0 2 0 2 0 2 0 2 0 2 0 2 0 2 0 2 -1 2 -1 2 -1 2 -1 1 -1 1 -1 1 -1 1 -1 1 -1 1 -1 1zm422 457l-470 -457 48 -49 470 457 -48 49zm0 0l48 -49 1 1 1 1 1 1 1 1 1 1 1 1 1 1 1 2 1 2 1 2 0 2 0 2 0 2 0 2 0 2 0 2 0 2 0 2 0 2 0 2 0 2 0 2 -1 2 -1 2 -1 2 -1 2 -1 1 -1 1 -1 1 -1 1 -1 1 -1 1 -1 1 -1 1 -1 1 -1 1 -1 1 -1 1 -2 1 -2 1 -2 1 -2 1 -2 0 -2 0 -2 0 -2 0 -2 0 -2 0 -2 0 -2 0 -2 0 -2 0 -2 0 -2 0 -2 0 -2 -1 -2 -1 -2 -1 -2 -1 -1 -1 -1 -1 -1 -1 -1 -1 -1 -1z"/>
      </g>
     </g>
    </g>
    <g style="clip-path:url(#id2)">
     <polygon class="fil2 str0" points="3312,5898 4552,5898 4552,6798 3312,6798 "/>
     <polygon class="fil2 str0" points="3914,4796 4485,5088 4485,5088 3914,5380 "/>
     <rect class="fil4" x="3121" y="4227" width="129" height="128"/>
     <rect class="fil4" x="3241" y="3906" width="129" height="128"/>
     <rect class="fil4" x="3509" y="4054" width="129" height="128"/>
     <rect class="fil4" x="3758" y="3800" width="129" height="128"/>
     <rect class="fil4" x="4104" y="3906" width="129" height="128"/>
     <rect class="fil4" x="4436" y="4047" width="129" height="128"/>
     <rect class="fil4" x="4718" y="3909" width="129" height="128"/>
     <rect class="fil4" x="5134" y="4115" width="129" height="128"/>
    </g>
    <g>
     <path class="fil3" d="M1357 2315l-60 -15 0 0 3 -11 3 -11 3 -12 4 -12 4 -12 4 -13 4 -13 5 -13 5 -13 5 -13 5 -13 5 -13 5 -14 6 -13 6 -13 6 -13 6 -13 6 -13 6 -13 7 -13 7 -12 7 -12 7 -12 7 -11 7 -11 8 -10 8 -10 8 -9 8 -9 8 -8 9 -8 9 -7 36 50 -6 4 -6 5 -6 6 -6 7 -6 7 -6 8 -6 9 -6 9 -6 10 -6 10 -6 11 -6 11 -6 12 -6 12 -6 12 -6 12 -6 13 -6 13 -5 13 -5 13 -5 13 -5 13 -5 13 -5 13 -4 13 -4 12 -4 12 -4 12 -3 11 -3 11 -3 11 -3 10 0 0zm-60 -15l60 15 0 2 -1 1 -1 1 -1 1 -1 1 -1 1 -1 1 -1 1 -1 1 -1 1 -1 1 -1 1 -1 1 -1 1 -1 1 -1 1 -1 1 -1 1 -1 1 -1 1 -1 0 -1 0 -1 0 -1 0 -2 0 -2 0 -2 0 -2 0 -2 0 -2 0 -2 0 -2 0 -2 0 -1 -1 -1 -1 -1 -1 -1 -1 -1 -1 -1 -1 -1 -1 -1 -1 -1 -1 -1 -1 -1 -1 -1 -1 -1 -1 -1 -1 -1 -1 -1 -1 -1 -1 -1 -1 -1 -1 0 -1 0 -1 0 -1 0 -1 0 -1 0 -2 0 -2 0 -2 0 -2 0 -2 0 -2 0 -2zm80 470l-58 21 0 0 -5 -15 -5 -15 -5 -15 -4 -15 -4 -15 -4 -15 -3 -15 -3 -15 -3 -15 -3 -15 -2 -15 -2 -15 -2 -15 -1 -15 -1 -15 -1 -15 -1 -15 0 -15 0 -16 0 -16 1 -16 1 -16 1 -16 1 -16 2 -16 2 -16 2 -16 3 -16 3 -16 3 -16 4 -16 4 -16 60 15 -4 15 -3 15 -3 15 -3 15 -3 15 -2 15 -2 15 -2 15 -1 15 -1 14 -1 14 -1 14 0 14 0 14 0 14 1 14 1 14 1 14 1 14 2 14 2 14 2 14 2 14 3 14 3 14 3 14 3 14 4 14 4 14 4 14 4 14 5 14 0 0zm-58 21l58 -21 1 2 0 2 0 2 0 2 0 2 0 2 0 2 0 2 0 1 0 1 0 1 0 1 0 1 0 1 -1 1 -1 1 -1 1 -1 1 -1 1 -1 1 -1 1 -1 1 -1 1 -1 1 -1 1 -1 1 -1 1 -1 1 -1 1 -1 1 -1 1 -1 1 -2 0 -2 0 -2 0 -2 0 -2 0 -2 0 -2 0 -2 0 -2 0 -1 0 -1 0 -1 0 -1 0 -1 0 -1 -1 -1 -1 -1 -1 -1 -1 -1 -1 -1 -1 -1 -1 -1 -1 -1 -1 -1 -1 -1 -1 -1 -1 -1 -1 -1 -1 -1 -1 -1 -1 -1 -1 -1 -1zm401 402l-27 55 -2 -1 -16 -10 -16 -10 -16 -10 -15 -11 -15 -11 -15 -11 -14 -12 -14 -12 -14 -12 -14 -12 -13 -13 -13 -13 -13 -13 -12 -14 -12 -14 -12 -14 -12 -14 -11 -15 -11 -15 -11 -15 -10 -16 -10 -16 -10 -16 -9 -16 -9 -17 -9 -17 -8 -17 -8 -18 -8 -18 -8 -18 -7 -18 -7 -19 58 -21 6 18 7 17 7 17 7 17 8 16 8 16 8 16 8 16 9 15 9 15 9 15 10 14 10 14 10 14 10 14 11 13 11 13 11 13 11 13 12 12 12 12 12 12 13 12 13 11 13 11 13 11 14 10 14 10 14 10 15 10 15 9 15 9 -2 -1zm-29 54l32 -53 1 1 1 1 1 1 1 1 1 1 1 1 1 1 1 1 1 1 1 1 1 1 1 1 1 1 1 1 0 1 0 1 0 1 0 1 0 1 0 1 0 1 0 1 0 1 0 1 0 1 0 1 0 1 0 1 -1 1 -1 1 -1 1 -1 1 -1 1 -1 1 -1 1 -1 1 -1 1 -1 1 -1 1 -1 1 -1 1 -1 1 -1 1 -1 1 -1 1 -1 1 -1 0 -1 0 -1 0 -1 0 -1 0 -1 0 -1 0 -1 0 -2 0 -1 0 -1 0 -1 0 -1 0 -1 0 -1 -1 -1 -1 -1 -1 -1 -1zm196 94l-193 -93 27 -55 193 93 -13 58 -14 -3zm0 0l27 -55 1 1 1 1 1 1 1 1 1 1 1 1 1 1 1 1 1 1 1 1 1 1 1 1 1 1 1 1 1 1 1 1 0 1 0 1 0 1 0 1 0 1 0 1 0 1 0 2 0 1 0 2 0 1 0 1 0 1 -1 1 -1 1 -1 1 -1 1 -1 1 -1 1 -1 1 -1 1 -1 1 -1 1 -1 1 -1 1 -1 1 -1 1 -1 1 -1 1 -1 1 -1 1 -1 1 -1 0 -1 0 -1 0 -1 0 -1 0 -2 0 -1 0 -2 0 -2 0 -2 0 -2 0 -2 0 -1 0 -1 -1 -1 -1 -1 -1zm-480 5l1 -62 0 0 15 0 15 0 15 0 15 0 15 0 15 0 15 0 15 0 15 0 15 0 15 0 15 0 15 0 15 0 15 0 15 0 15 0 15 0 15 0 15 0 15 0 15 0 15 0 15 0 15 0 15 0 15 0 15 0 15 0 15 0 15 0 15 0 1 62 -15 0 -15 0 -15 0 -15 0 -15 0 -15 0 -15 0 -15 0 -15 0 -15 0 -15 0 -15 0 -15 0 -15 0 -16 0 -15 0 -16 0 -16 0 -16 0 -15 0 -16 0 -15 0 -16 0 -15 0 -15 0 -15 0 -15 0 -15 0 -15 0 -15 0 -15 0 -15 0 0 0zm1 -62l-1 62 -2 0 -2 0 -2 0 -2 0 -2 0 -1 0 -1 -1 -1 -1 -1 -1 -1 -1 -1 -1 -1 -1 -1 -1 -1 -1 -1 -1 -1 -1 -1 -1 -1 -1 -1 -1 -1 -1 -1 -1 -1 -1 -1 -1 -1 -1 -1 -1 0 -1 0 -1 0 -1 0 -2 0 -2 0 -2 0 -2 0 -2 0 -2 0 -2 0 -2 0 -1 0 -1 1 -1 1 -1 1 -1 1 -1 1 -1 1 -1 1 -1 1 -1 1 -1 1 -1 1 -1 1 -1 1 -1 1 -1 1 -1 1 -1 1 -1 1 -1 1 -1 1 0 1 0 2 0 2 0 2 0 2 0 2 0zm-111 128l-62 1 0 0 0 -12 0 -11 0 -10 0 -10 0 -9 1 -8 1 -8 1 -8 1 -7 2 -7 3 -7 4 -7 5 -7 6 -6 7 -5 7 -4 7 -3 7 -2 7 -1 7 -1 7 0 7 0 7 0 8 0 8 0 8 1 9 1 9 1 10 1 11 0 11 0 12 0 -1 62 -13 0 -12 0 -11 -1 -10 -1 -10 -1 -9 -1 -8 -1 -7 0 -7 0 -6 0 -5 0 -4 0 -3 0 -2 0 -1 0 0 0 1 0 1 -1 1 -1 0 0 0 0 0 1 -1 2 -1 4 -1 5 -1 6 0 7 0 8 0 9 0 10 0 11 0 12 0 0zm-62 1l62 -1 0 2 0 2 0 2 0 2 0 1 0 1 0 1 -1 1 -1 1 -1 1 -1 1 -1 1 -1 1 -1 1 -1 1 -1 1 -1 1 -1 1 -1 1 -1 1 -1 1 -1 1 -1 1 -1 1 -1 1 -1 1 -1 0 -2 0 -2 0 -2 0 -2 0 -2 0 -2 0 -2 0 -2 0 -2 0 -2 0 -1 0 -1 0 -1 -1 -1 -1 -1 -1 -1 -1 -1 -1 -1 -1 -1 -1 -1 -1 -1 -1 -1 -1 -1 -1 -1 -1 -1 -1 -1 -1 -1 -1 -1 -1 -1 -1 -1 -1 -1 -1 0 -1 0 -1 0 -2 0 -2 0 -2 0 -2zm89 215l-9 61 0 0 -9 -2 -9 -2 -8 -2 -8 -3 -8 -3 -7 -4 -7 -5 -6 -6 -6 -7 -5 -7 -4 -7 -3 -8 -2 -8 -2 -8 -1 -8 -1 -8 0 -8 0 -8 0 -9 0 -9 0 -10 0 -10 1 -11 1 -11 1 -12 1 -12 1 -13 0 -14 0 -14 0 -15 0 -16 0 -17 62 -1 0 17 0 16 0 16 0 15 0 14 -1 13 -1 13 -1 12 -1 11 -1 10 0 10 0 9 0 8 0 8 0 7 0 6 0 5 1 4 1 4 1 3 1 2 1 1 1 1 1 1 1 1 1 1 2 1 3 1 4 1 4 1 5 1 6 1 0 0zm-9 61l9 -61 2 0 2 0 2 0 1 0 1 1 1 1 1 1 1 1 1 1 1 1 1 1 1 1 1 1 1 1 1 1 1 1 1 1 1 1 1 1 1 1 1 1 1 1 0 1 0 1 0 1 0 1 0 2 0 2 0 2 0 2 0 2 0 2 0 2 0 2 0 1 0 1 -1 1 -1 1 -1 1 -1 1 -1 1 -1 1 -1 1 -1 1 -1 1 -1 1 -1 1 -1 1 -1 1 -1 1 -1 1 -1 1 -1 1 -1 1 -1 0 -1 0 -1 0 -2 0 -2 0 -2 0 -2 0 -2 0 -2 0 -2 0zm62 -59l0 62 0 0 -1 0 -1 0 -1 0 -2 0 -2 0 -2 0 -2 0 -2 0 -2 0 -2 0 -2 0 -2 0 -2 0 -2 0 -2 0 -2 0 -2 0 -2 0 -2 0 -2 0 -2 0 -2 0 -2 0 -2 0 -2 0 -2 0 -2 0 -2 0 -2 0 -2 0 -2 0 -2 0 9 -61 0 0 0 0 1 0 1 0 1 0 1 0 2 0 2 0 2 0 2 0 2 0 2 0 2 0 2 0 2 0 2 0 2 0 2 0 2 0 2 0 2 0 2 0 2 0 2 0 2 0 2 0 2 0 2 0 1 0 1 0 1 0 1 0 0 0zm0 62l0 -62 2 0 2 0 2 0 2 0 2 0 1 0 1 0 1 1 1 1 1 1 1 1 1 1 1 1 1 1 1 1 1 1 1 1 1 1 1 1 1 1 1 1 1 1 1 1 1 1 1 1 0 1 0 1 0 1 0 2 0 2 0 2 0 2 0 2 0 2 0 2 0 2 0 1 0 1 -1 1 -1 1 -1 1 -1 1 -1 1 -1 1 -1 1 -1 1 -1 1 -1 1 -1 1 -1 1 -1 1 -1 1 -1 1 -1 1 -1 1 -1 1 -1 1 -1 0 -1 0 -2 0 -2 0 -2 0 -2 0 -2 0zm386 0l-386 0 0 -62 386 0 0 62 0 0zm0 0l0 -62 2 0 2 0 2 0 2 0 1 0 1 0 1 0 1 1 1 1 1 1 1 1 1 1 1 1 1 1 1 1 1 1 1 1 1 1 1 1 1 1 1 1 1 1 1 1 1 1 1 1 0 1 0 1 0 1 0 2 0 2 0 2 0 2 0 2 0 2 0 2 0 2 0 1 0 1 0 1 -1 1 -1 1 -1 1 -1 1 -1 1 -1 1 -1 1 -1 1 -1 1 -1 1 -1 1 -1 1 -1 1 -1 1 -1 1 -1 1 -1 1 -1 1 -1 0 -1 0 -1 0 -2 0 -2 0 -2 0 -2 0zm1486 -36l62 0 -27 30 -15 1 -19 1 -25 1 -30 1 -35 1 -39 1 -43 1 -47 0 -51 0 -54 0 -56 0 -58 0 -60 0 -62 0 -63 0 -64 0 -64 0 -64 0 -63 0 -63 0 -61 0 -60 0 -58 0 -55 0 -53 0 -50 0 -46 0 -42 0 -38 0 -33 0 -28 0 -23 0 0 -62 23 0 28 0 33 0 38 0 42 0 46 0 50 0 53 0 55 0 58 0 60 0 61 0 63 0 63 0 64 0 64 0 63 0 63 0 62 0 60 0 58 0 56 0 53 0 50 0 47 0 43 -1 39 -1 34 -1 29 -1 24 -1 18 -1 11 -1 -27 30zm35 31l-9 -61 2 0 2 0 2 0 2 0 2 0 2 0 2 0 1 0 1 0 1 0 1 1 1 1 1 1 1 1 1 1 1 1 1 1 1 1 1 1 1 1 1 1 1 1 1 1 1 1 1 1 1 1 1 1 1 1 0 1 0 1 0 2 0 2 0 2 0 2 0 2 0 2 0 2 0 2 0 1 0 1 0 1 0 1 -1 1 -1 1 -1 1 -1 1 -1 1 -1 1 -1 1 -1 1 -1 1 -1 1 -1 1 -1 1 -1 1 -1 1 -1 1 -1 1 -1 1 -1 1 -1 0 -2 0 -2 0 -2 0zm27 -369l-1 338 -62 0 1 -338 31 -31 31 31zm0 0l-62 0 0 -2 0 -2 0 -2 0 -2 0 -1 0 -1 0 -1 1 -1 1 -1 1 -1 1 -1 1 -1 1 -1 1 -1 1 -1 1 -1 1 -1 1 -1 1 -1 1 -1 1 -1 1 -1 1 -1 1 -1 1 -1 1 0 1 0 2 0 2 0 2 0 2 0 2 0 2 0 2 0 2 0 2 0 2 0 1 0 1 0 1 1 1 1 1 1 1 1 1 1 1 1 1 1 1 1 1 1 1 1 1 1 1 1 1 1 1 1 1 1 1 1 1 1 1 1 0 1 0 1 0 1 0 2 0 2 0 2 0 2zm-1021 -34l990 4 0 62 -990 -4 -15 -58 15 -4zm0 0l0 62 -2 0 -2 0 -2 0 -2 0 -2 0 -1 0 -1 0 -1 -1 -1 -1 -1 -1 -1 -1 -1 -1 -1 -1 -1 -1 -1 -1 -1 -1 -1 -1 -1 -1 -1 -1 -1 -1 -1 -1 -1 -1 -1 -1 -1 -1 -1 -1 0 -1 0 -1 0 -1 0 -2 0 -2 0 -2 0 -2 0 -2 0 -2 0 -2 0 -2 0 -1 0 -1 1 -1 1 -1 1 -1 1 -1 1 -1 1 -1 1 -1 1 -1 1 -1 1 -1 1 -1 1 -1 1 -1 1 -1 1 -1 1 -1 1 -1 1 -1 1 -1 1 0 1 0 2 0 2 0 2 0 2 0 2 0zm256 -130l35 51 0 0 -6 4 -6 4 -7 4 -7 4 -8 4 -8 4 -9 4 -9 5 -9 5 -10 5 -10 5 -10 5 -10 5 -11 5 -11 5 -11 5 -11 5 -11 5 -10 5 -10 5 -10 5 -10 5 -10 4 -9 4 -9 4 -8 4 -8 4 -7 4 -7 3 -6 3 -5 3 -4 2 -30 -54 5 -3 6 -3 7 -3 7 -3 8 -4 8 -4 9 -4 9 -4 9 -4 10 -5 10 -5 10 -5 10 -5 10 -5 11 -5 11 -5 11 -5 11 -5 10 -5 10 -5 10 -5 10 -5 9 -5 9 -5 9 -4 8 -4 8 -4 7 -4 6 -4 6 -3 5 -3 4 -3 0 0zm134 -123l53 31 -1 1 -3 5 -3 5 -4 5 -4 5 -4 5 -4 5 -4 5 -4 5 -5 5 -5 5 -5 5 -5 5 -5 5 -5 5 -5 5 -5 5 -5 5 -5 5 -5 5 -5 5 -5 4 -5 4 -5 4 -5 4 -5 4 -5 4 -5 4 -5 4 -5 4 -5 4 -5 3 -5 3 -35 -51 4 -3 4 -3 4 -3 5 -3 5 -3 5 -4 5 -4 5 -4 5 -4 5 -4 5 -4 5 -4 5 -4 5 -4 5 -4 5 -4 5 -4 5 -4 5 -4 4 -4 4 -4 4 -4 4 -4 4 -4 4 -4 4 -4 3 -4 3 -4 3 -4 3 -4 3 -3 2 -3 -1 1zm52 33l-52 -34 1 -1 1 -1 1 -1 1 -1 1 -1 1 -1 1 -1 1 -1 1 -1 1 -1 1 -1 1 -1 1 -1 1 0 1 0 1 0 1 0 1 0 1 0 1 0 1 0 1 0 1 0 1 0 1 0 1 0 1 0 1 1 1 1 1 1 1 1 1 1 1 1 1 1 1 1 1 1 1 1 1 1 1 1 1 1 1 1 1 1 1 1 1 1 1 1 0 1 0 1 0 1 0 1 0 1 0 1 0 1 0 1 0 1 0 1 0 1 0 1 0 1 0 1 -1 1 -1 1 -1 1 -1 1 -1 1zm15 -25l-14 24 -53 -31 14 -24 27 -15 27 47zm0 0l-53 -31 1 -1 1 -1 1 -1 1 -1 1 -1 1 -1 1 -1 1 -1 1 -1 1 -1 1 -1 1 -1 1 -1 1 -1 1 0 1 0 1 0 1 0 1 0 1 0 1 0 1 0 2 0 2 0 1 0 1 0 1 0 1 0 1 1 1 1 1 1 1 1 1 1 1 1 1 1 1 1 1 1 1 1 1 1 1 1 1 1 1 1 1 1 1 1 1 1 1 1 0 1 0 1 0 1 0 1 0 1 0 1 0 1 0 1 0 1 0 1 0 1 0 1 0 1 0 1 -1 1 -1 1 -1 1 -1 1zm506 15l-532 0 0 -62 532 0 31 31 -31 31zm0 0l0 -62 2 0 2 0 2 0 2 0 1 0 1 0 1 0 1 1 1 1 1 1 1 1 1 1 1 1 1 1 1 1 1 1 1 1 1 1 1 1 1 1 1 1 1 1 1 1 1 1 1 1 0 1 0 1 0 1 0 2 0 2 0 2 0 2 0 2 0 2 0 2 0 2 0 1 0 1 0 1 -1 1 -1 1 -1 1 -1 1 -1 1 -1 1 -1 1 -1 1 -1 1 -1 1 -1 1 -1 1 -1 1 -1 1 -1 1 -1 1 -1 1 -1 1 -1 0 -1 0 -1 0 -2 0 -2 0 -2 0 -2 0zm31 -373l0 342 -62 0 0 -342 31 -31 31 31zm0 0l-62 0 0 -2 0 -2 0 -2 0 -2 0 -1 0 -1 0 -1 1 -1 1 -1 1 -1 1 -1 1 -1 1 -1 1 -1 1 -1 1 -1 1 -1 1 -1 1 -1 1 -1 1 -1 1 -1 1 -1 1 -1 1 -1 1 0 1 0 1 0 2 0 2 0 2 0 2 0 2 0 2 0 2 0 2 0 1 0 1 0 1 0 1 1 1 1 1 1 1 1 1 1 1 1 1 1 1 1 1 1 1 1 1 1 1 1 1 1 1 1 1 1 1 1 1 1 1 1 0 1 0 1 0 1 0 2 0 2 0 2 0 2zm-895 -31l864 0 0 62 -864 0 -31 -31 31 -31zm0 0l0 62 -2 0 -2 0 -2 0 -2 0 -1 0 -1 0 -1 0 -1 -1 -1 -1 -1 -1 -1 -1 -1 -1 -1 -1 -1 -1 -1 -1 -1 -1 -1 -1 -1 -1 -1 -1 -1 -1 -1 -1 -1 -1 -1 -1 -1 -1 -1 -1 0 -1 0 -1 0 -1 0 -2 0 -2 0 -2 0 -2 0 -2 0 -2 0 -2 0 -2 0 -1 0 -1 0 -1 1 -1 1 -1 1 -1 1 -1 1 -1 1 -1 1 -1 1 -1 1 -1 1 -1 1 -1 1 -1 1 -1 1 -1 1 -1 1 -1 1 -1 1 -1 1 0 1 0 1 0 2 0 2 0 2 0 2 0zm-31 373l0 -342 62 0 0 342 -31 31 -31 -31zm0 0l62 0 0 2 0 2 0 2 0 2 0 1 0 1 0 1 -1 1 -1 1 -1 1 -1 1 -1 1 -1 1 -1 1 -1 1 -1 1 -1 1 -1 1 -1 1 -1 1 -1 1 -1 1 -1 1 -1 1 -1 1 -1 0 -1 0 -1 0 -2 0 -2 0 -2 0 -2 0 -2 0 -2 0 -2 0 -2 0 -1 0 -1 0 -1 0 -1 -1 -1 -1 -1 -1 -1 -1 -1 -1 -1 -1 -1 -1 -1 -1 -1 -1 -1 -1 -1 -1 -1 -1 -1 -1 -1 -1 -1 -1 -1 -1 -1 -1 -1 -1 0 -1 0 -1 0 -1 0 -2 0 -2 0 -2 0 -2zm-429 81l19 -58 0 0 16 5 16 4 17 3 17 2 18 2 18 1 18 0 18 0 18 -1 18 -2 18 -2 18 -2 18 -3 17 -3 17 -3 17 -4 16 -4 15 -4 15 -4 14 -4 13 -4 12 -4 12 -4 11 -4 10 -3 8 -3 7 -3 6 -2 5 -2 3 -1 1 -1 14 58 0 -62 12 59 -3 1 -4 2 -5 2 -7 3 -8 3 -9 3 -10 4 -11 4 -12 4 -13 4 -14 4 -15 4 -16 4 -16 4 -17 4 -18 4 -18 4 -19 3 -19 3 -19 3 -20 2 -20 2 -20 1 -20 0 -20 0 -20 -1 -20 -2 -20 -3 -20 -4 -20 -5 -19 -6 0 0zm19 -58l-19 58 -2 -1 -1 -1 -1 -1 -1 -1 -1 -1 -1 -1 -1 -1 -1 -1 -1 -1 -1 -1 -1 -1 -1 -1 -1 -1 -1 -1 -1 -1 -1 -1 -1 -1 -1 -1 -1 -1 0 -1 0 -1 0 -1 0 -1 0 -1 0 -2 0 -2 0 -2 0 -2 0 -2 0 -2 0 -2 0 -2 1 -1 1 -1 1 -1 1 -1 1 -1 1 -1 1 -1 1 -1 1 -1 1 -1 1 -1 1 -1 1 -1 1 -1 1 -1 1 -1 1 -1 1 -1 1 -1 1 0 1 0 1 0 1 0 2 0 2 0 2 0 2 0 2 0 2 0 2 0 2 0 2 0zm-359 -219l52 -34 0 0 8 11 8 11 8 11 8 11 8 10 8 10 8 10 8 10 8 9 8 9 8 9 8 9 8 8 8 8 9 8 9 8 9 8 9 7 9 7 10 7 10 7 10 7 11 6 11 6 11 6 12 6 12 6 13 6 13 5 13 5 14 5 14 5 -19 58 -16 -5 -15 -6 -15 -6 -14 -6 -14 -6 -14 -6 -13 -7 -13 -7 -12 -7 -12 -7 -12 -8 -11 -8 -11 -8 -11 -8 -10 -8 -10 -9 -10 -9 -10 -9 -9 -9 -9 -9 -9 -10 -9 -10 -9 -10 -8 -10 -8 -10 -8 -11 -8 -11 -8 -11 -8 -11 -8 -11 -8 -12 -8 -12 0 0zm52 -34l-52 34 -1 -1 -1 -1 -1 -1 -1 -1 -1 -1 0 -1 0 -1 0 -1 0 -1 0 -1 0 -1 0 -1 0 -1 0 -1 0 -1 0 -1 0 -1 0 -1 0 -1 1 -1 1 -1 1 -1 1 -1 1 -1 1 -1 1 -1 1 -1 1 -1 1 -1 1 -1 1 -1 1 -1 1 -1 1 -1 1 -1 1 -1 1 -1 1 0 1 0 1 0 1 0 1 0 2 0 1 0 1 0 1 0 1 0 1 0 1 0 1 0 1 0 1 1 1 1 1 1 1 1 1 1 1 1 1 1 1 1 1 1 1 1 1 1 1 1 1 1zm-18 -665l52 33 0 0 -12 19 -11 19 -11 19 -10 20 -9 20 -9 20 -8 20 -7 20 -7 20 -6 20 -5 21 -5 21 -4 21 -3 21 -3 21 -2 21 -1 21 0 20 0 20 1 20 2 20 3 20 4 20 4 20 5 19 6 19 7 19 8 19 9 19 9 18 10 18 11 18 -52 34 -13 -20 -12 -20 -11 -21 -10 -21 -9 -21 -8 -22 -7 -22 -6 -22 -5 -22 -4 -22 -3 -22 -2 -23 -1 -23 0 -23 0 -23 1 -23 2 -23 3 -23 4 -23 4 -23 5 -23 6 -22 7 -22 7 -22 8 -22 9 -22 9 -22 10 -21 11 -21 11 -21 12 -21 13 -20 0 0zm52 33l-52 -33 1 -1 1 -1 1 -1 1 -1 1 -1 1 -1 1 -1 1 -1 1 -1 1 -1 1 -1 1 -1 1 -1 1 0 1 0 1 0 1 0 1 0 1 0 1 0 1 0 2 0 1 0 1 0 1 0 1 0 1 0 1 1 1 1 1 1 1 1 1 1 1 1 1 1 1 1 1 1 1 1 1 1 1 1 1 1 1 1 1 1 1 1 1 1 1 1 0 1 0 1 0 1 0 1 0 1 0 1 0 1 0 1 0 1 0 1 0 1 0 1 0 1 0 1 -1 1 -1 1 -1 1 -1 1 -1 1zm102 -201l24 57 12 -9 -5 6 -5 6 -5 5 -5 5 -5 5 -5 5 -5 5 -5 5 -5 4 -4 4 -4 4 -4 4 -4 4 -4 4 -4 4 -4 4 -4 4 -4 4 -4 4 -4 4 -4 4 -4 4 -4 4 -4 5 -4 5 -4 5 -4 5 -4 5 -4 6 -4 6 -4 6 -4 7 -52 -33 5 -7 5 -7 5 -7 5 -7 5 -6 5 -6 5 -6 5 -6 5 -5 5 -5 5 -5 4 -5 4 -5 4 -4 4 -4 4 -4 4 -4 4 -4 4 -4 4 -4 4 -4 4 -4 4 -4 4 -4 4 -4 4 -4 4 -4 4 -5 4 -5 4 -5 4 -5 5 -5 12 -9zm36 48l-47 -40 1 -1 1 -1 1 -1 1 -1 1 -1 1 -1 1 -1 1 -1 1 -1 1 -1 1 -1 1 0 1 0 1 0 1 0 1 0 1 0 1 0 1 0 1 0 1 0 1 0 1 0 1 0 1 0 1 1 1 1 1 1 1 1 1 1 1 1 1 1 1 1 1 1 1 1 1 1 1 1 1 1 1 1 1 1 1 1 1 1 1 1 0 1 0 1 0 1 0 1 0 1 0 1 0 1 0 1 0 1 0 1 0 1 0 1 0 1 0 1 -1 1 -1 1 -1 1 -1 1 -1 1 -1 1 -1 1zm14 -2l-26 11 -24 -57 26 -11 38 12 -14 45zm0 0l-24 -57 1 -1 1 0 2 0 2 0 2 0 2 0 2 0 2 0 2 0 1 0 1 0 1 0 1 0 1 0 1 0 1 1 1 1 1 1 1 1 1 1 1 1 1 1 1 1 1 1 1 1 1 1 1 1 1 1 1 1 1 1 1 1 1 1 1 1 1 1 0 2 0 2 0 2 0 2 0 2 0 2 0 2 0 1 0 1 0 1 0 1 0 1 0 1 -1 1 -1 1 -1 1 -1 1 -1 1 -1 1 -1 1 -1 1 -1 1 -1 1 -1 1 -1 1 -1 1 -1 1 -1 1 -1 1 -1 1zm-75 -53l43 -45 1 1 4 4 3 3 3 3 2 2 2 2 1 1 1 1 0 0 0 0 -1 -1 -2 -1 -4 -1 -5 -1 -6 0 -5 1 -1 0 4 -1 11 0 12 4 6 4 3 3 2 2 1 2 1 2 1 2 1 2 1 2 2 3 2 3 2 3 2 4 3 5 -53 32 -3 -5 -3 -4 -2 -4 -2 -3 -2 -3 -1 -2 -1 -2 -1 -1 0 -1 0 0 1 1 2 2 5 4 11 4 11 0 4 -1 -1 0 -5 1 -7 0 -6 -1 -5 -1 -4 -2 -3 -2 -3 -2 -3 -2 -2 -2 -3 -2 -3 -3 -3 -3 -3 -3 -4 -4 -4 -4 1 1zm44 -43l-45 42 -1 -1 -1 -1 -1 -1 -1 -1 -1 -1 -1 -1 -1 -1 -1 -1 0 -1 0 -1 0 -1 0 -1 0 -1 0 -1 0 -1 0 -1 0 -1 0 -1 0 -1 0 -1 0 -1 0 -1 1 -1 1 -1 1 -1 1 -1 1 -1 1 -1 1 -1 1 -1 1 -1 1 -1 1 -1 1 -1 1 -1 1 -1 1 -1 1 -1 1 -1 1 -1 1 0 1 0 1 0 1 0 1 0 1 0 1 0 1 0 1 0 1 0 1 0 1 0 1 0 1 0 1 1 1 1 1 1 1 1 1 1 1 1 1 1 1 1 1 1 1 1zm-127 -119l125 117 -43 45 -125 -117 0 -44 43 0zm0 0l-43 45 -1 -1 -1 -1 -1 -1 -1 -1 -1 -1 -1 -1 -1 -1 -1 -1 -1 -1 -1 -1 0 -1 0 -1 0 -1 0 -1 0 -1 0 -1 0 -1 0 -1 0 -1 0 -1 0 -1 0 -1 0 -1 0 -1 1 -1 1 -1 1 -1 1 -1 1 -1 1 -1 1 -1 1 -1 1 -1 1 -1 1 -1 1 -1 1 -1 1 -1 1 -1 1 -1 1 -1 1 0 1 0 1 0 1 0 1 0 1 0 1 0 1 0 1 0 1 0 1 0 1 0 1 0 1 0 1 0 1 1 1 1 1 1 1 1 1 1 1 1 1 1 1 1zm-187 139l144 -139 43 44 -144 139 -4 3 -40 -47zm0 0l43 44 -1 1 -1 1 -1 1 -1 1 -1 1 -1 1 -1 1 -1 1 -1 1 -1 0 -1 0 -1 0 -1 0 -1 0 -1 0 -1 0 -1 0 -1 0 -1 0 -1 0 -1 0 -1 0 -1 0 -1 -1 -1 -1 -1 -1 -1 -1 -1 -1 -1 -1 -1 -1 -1 -1 -1 -1 -1 -1 -1 -1 -1 -1 -1 -1 -1 -1 -1 -1 -1 -1 -1 -1 -1 -1 0 -1 0 -1 0 -1 0 -1 0 -1 0 -1 0 -1 0 -1 0 -1 0 -1 0 -1 0 -1 0 -1 0 -1 1 -1 1 -1 1 -1 1 -1 1 -1 1 -1 1 -1 1 -1 1 -1z"/>
    </g>
    <g>
     <path class="fil3" d="M1754 1951l-125 -117 43 -45 125 117 1 1 -44 43zm0 0l43 -45 1 1 1 1 1 1 1 1 1 1 1 1 1 1 1 1 1 1 1 1 0 1 0 1 0 1 0 1 0 1 0 1 0 1 0 1 0 1 0 1 0 1 0 1 0 1 0 1 -1 1 -1 1 -1 1 -1 1 -1 1 -1 1 -1 1 -1 1 -1 1 -1 1 -1 1 -1 1 -1 1 -1 1 -1 1 -1 1 -1 1 -1 0 -1 0 -1 0 -1 0 -1 0 -1 0 -1 0 -1 0 -1 0 -1 0 -1 0 -1 0 -1 0 -1 0 -1 0 -1 -1 -1 -1 -1 -1 -1 -1 -1 -1 -1 -1 -1 -1 -1 -1zm84 1l-41 47 -6 -7 -3 -5 -3 -4 -2 -4 -2 -3 -2 -3 -1 -2 -1 -2 -1 -1 0 -1 0 0 1 1 2 2 5 4 11 4 11 0 4 -1 -1 0 -5 1 -7 0 -6 -1 -5 -2 -4 -2 -3 -2 -3 -2 -3 -2 -2 -2 -3 -2 -3 -3 -3 -3 -3 -3 -4 -4 -4 -4 45 -42 4 4 3 3 3 3 2 2 2 2 1 1 1 1 0 0 0 0 -1 -1 -2 -1 -4 -1 -5 -1 -6 0 -5 1 -1 0 4 -1 11 0 12 4 6 4 3 3 2 2 1 2 1 2 1 2 1 2 1 2 2 3 2 3 2 4 2 4 3 5 -6 -7zm-47 39l53 -32 1 1 1 1 1 1 1 1 1 1 0 1 0 1 0 1 0 1 0 1 0 1 0 1 0 1 0 1 0 1 0 1 0 1 0 1 -1 1 -1 1 -1 1 -1 1 -1 1 -1 1 -1 1 -1 1 -1 1 -1 1 -1 1 -1 1 -1 1 -1 1 -1 1 -1 1 -1 1 -1 1 -1 0 -1 0 -1 0 -1 0 -1 0 -1 0 -2 0 -1 0 -1 0 -1 0 -1 0 -1 0 -1 0 -1 0 -1 -1 -1 -1 -1 -1 -1 -1 -1 -1 -1 -1 -1 -1 -1 -1 -1 -1 -1 -1 -1 -1 -1 -1 -1 -1 -1 -1zm208 116l-46 41 0 0 -5 -5 -5 -5 -5 -5 -5 -5 -5 -5 -5 -5 -5 -5 -5 -5 -5 -5 -5 -5 -5 -5 -5 -5 -5 -5 -5 -5 -5 -5 -5 -5 -5 -4 -5 -4 -5 -4 -5 -4 -5 -4 -5 -4 -5 -4 -5 -4 -5 -4 -5 -4 -5 -5 -5 -5 -5 -5 -5 -5 -5 -5 -5 -5 41 -47 6 5 5 5 5 5 5 5 5 5 5 5 5 5 5 5 5 5 5 5 5 5 5 5 5 5 5 5 5 5 5 5 5 5 5 5 5 5 5 5 5 5 5 5 5 5 5 5 5 5 5 5 5 5 5 5 5 5 5 5 5 5 5 6 0 0zm-46 41l46 -41 1 1 1 1 1 1 1 1 1 1 1 1 1 1 1 1 0 1 0 1 0 1 0 1 0 1 0 1 0 1 0 1 0 1 0 1 0 1 0 1 0 1 0 1 -1 1 -1 1 -1 1 -1 1 -1 1 -1 1 -1 1 -1 1 -1 1 -1 1 -1 1 -1 1 -1 1 -1 1 -1 1 -1 1 -1 1 -1 1 -1 0 -1 0 -1 0 -1 0 -1 0 -1 0 -1 0 -1 0 -1 0 -1 0 -1 0 -1 0 -1 0 -1 0 -1 -1 -1 -1 -1 -1 -1 -1 -1 -1 -1 -1 -1 -1 -1 -1 -1 -1 -1 -1zm163 102l21 58 -34 -9 -5 -5 -5 -5 -5 -5 -5 -5 -4 -5 -5 -5 -5 -5 -5 -5 -5 -5 -5 -5 -5 -4 -5 -4 -5 -4 -5 -4 -5 -4 -5 -4 -5 -4 -5 -4 -5 -5 -5 -5 -5 -5 -5 -5 -5 -5 -5 -5 -5 -5 -5 -5 -5 -5 -5 -5 -5 -5 -5 -5 -5 -5 -5 -5 46 -41 5 5 5 5 5 5 5 5 5 5 5 5 5 5 5 5 5 5 5 5 5 5 5 4 5 4 5 4 5 4 5 4 5 4 5 4 5 5 5 5 5 5 5 5 5 5 5 5 5 5 5 5 5 5 5 5 5 5 5 5 5 5 5 5 -34 -9zm-13 49l46 -41 1 1 1 1 1 1 1 1 1 1 1 1 1 1 1 1 0 1 0 1 0 1 0 1 0 1 0 1 0 1 0 1 0 1 0 1 0 1 0 1 0 1 0 1 -1 1 -1 1 -1 1 -1 1 -1 1 -1 1 -1 1 -1 1 -1 1 -1 1 -1 1 -1 1 -1 1 -1 1 -1 1 -1 1 -1 1 -1 1 -1 0 -1 0 -1 0 -1 0 -1 0 -1 0 -1 0 -1 0 -1 0 -1 0 -1 0 -1 0 -1 0 -1 0 -1 -1 -1 -1 -1 -1 -1 -1 -1 -1 -1 -1 -1 -1 -1 -1 -1 -1 -1 -1zm329 -321l41 -46 8 34 -4 8 -5 7 -5 8 -6 8 -7 9 -8 10 -9 11 -10 11 -11 12 -11 12 -12 13 -12 13 -13 14 -13 14 -13 14 -14 14 -14 14 -14 14 -14 14 -14 13 -14 13 -13 12 -13 12 -13 11 -12 11 -12 10 -11 9 -10 8 -10 7 -9 6 -9 5 -10 4 -21 -58 2 -1 5 -3 7 -4 8 -6 9 -7 10 -8 11 -9 11 -10 12 -11 12 -11 13 -12 13 -13 13 -13 14 -13 14 -13 14 -14 13 -14 13 -14 13 -14 13 -13 12 -13 12 -13 11 -12 10 -12 9 -11 9 -10 8 -9 7 -8 5 -7 4 -6 2 -4 0 0 8 34zm49 -11l-57 -23 1 -1 1 -1 1 -1 1 -1 1 -1 1 -1 1 -1 1 -1 1 -1 1 -1 1 -1 1 -1 1 -1 1 -1 1 -1 1 -1 1 -1 1 0 1 0 1 0 1 0 1 0 2 0 2 0 2 0 2 0 2 0 2 0 2 0 2 0 2 0 1 1 1 1 1 1 1 1 1 1 1 1 1 1 1 1 1 1 1 1 1 1 1 1 1 1 1 1 1 1 1 1 1 1 1 1 0 1 0 1 0 1 0 1 0 1 0 1 0 2 0 2 0 2 0 2 0 2 0 2 0 2 0 2 -1 1zm-479 -410l44 -44 0 0 14 14 14 14 14 14 13 14 13 13 13 13 13 13 13 13 13 13 13 13 13 13 13 13 13 13 13 13 13 13 13 13 13 13 13 13 13 13 13 13 13 13 13 13 13 13 13 13 13 13 13 13 13 13 14 13 14 13 14 13 14 12 14 12 -41 46 -14 -13 -14 -13 -14 -13 -14 -13 -14 -13 -14 -13 -14 -13 -14 -13 -13 -13 -13 -13 -13 -13 -13 -13 -13 -13 -13 -13 -13 -13 -13 -13 -13 -13 -13 -13 -13 -13 -13 -13 -13 -13 -13 -13 -13 -13 -13 -13 -13 -13 -13 -13 -13 -13 -13 -13 -13 -13 -13 -13 -14 -14 -14 -14 0 0zm44 -44l-44 44 -1 -1 -1 -1 -1 -1 -1 -1 -1 -1 -1 -1 -1 -1 -1 -1 -1 -1 0 -1 0 -1 0 -1 0 -1 0 -1 0 -1 0 -1 0 -1 0 -1 0 -1 0 -1 0 -1 0 -1 0 -1 1 -1 1 -1 1 -1 1 -1 1 -1 1 -1 1 -1 1 -1 1 -1 1 -1 1 -1 1 -1 1 -1 1 -1 1 -1 1 -1 1 -1 1 -1 1 0 1 0 1 0 1 0 1 0 1 0 1 0 1 0 1 0 1 0 1 0 1 0 1 0 1 0 1 1 1 1 1 1 1 1 1 1 1 1 1 1 1 1 1 1zm-440 -434l440 434 -44 44 -440 -434 7 -49 37 5zm0 0l-44 44 -1 -1 -1 -1 -1 -1 -1 -1 -1 -1 -1 -1 -1 -1 -1 -1 -1 -1 0 -1 0 -1 0 -1 0 -1 0 -1 0 -1 0 -1 0 -1 0 -1 0 -1 0 -1 0 -1 0 -1 0 -1 1 -1 1 -1 1 -1 1 -1 1 -1 1 -1 1 -1 1 -1 1 -1 1 -1 1 -1 1 -1 1 -1 1 -1 1 -1 1 -1 1 -1 1 -1 1 0 1 0 1 0 1 0 1 0 1 0 1 0 1 0 1 0 1 0 1 0 1 0 1 0 1 0 1 1 1 1 1 1 1 1 1 1 1 1 1 1 1 1 1 1zm-315 319l-55 29 3 -34 5 -7 6 -7 7 -8 8 -9 9 -9 9 -10 10 -11 10 -11 11 -11 11 -12 12 -12 12 -12 12 -13 12 -13 13 -13 13 -13 13 -13 13 -12 13 -12 12 -12 12 -12 12 -11 12 -11 11 -10 11 -10 10 -9 10 -8 9 -8 9 -7 8 -6 8 -5 7 -4 30 54 -4 2 -5 4 -6 5 -7 6 -8 7 -9 8 -10 8 -10 9 -11 10 -11 10 -12 11 -12 11 -12 12 -12 12 -12 12 -12 12 -12 12 -12 12 -12 12 -12 12 -12 12 -12 12 -11 12 -11 11 -10 11 -10 10 -9 10 -8 9 -7 8 -7 8 -6 7 -5 6 3 -34zm-52 -5l49 38 -1 1 -1 1 -1 1 -1 1 -1 1 -1 1 -1 1 -1 1 -1 1 -1 1 -1 1 -1 0 -1 0 -1 0 -1 0 -1 0 -1 0 -1 0 -1 0 -1 0 -1 0 -1 0 -1 0 -1 0 -1 0 -1 -1 -1 -1 -1 -1 -1 -1 -1 -1 -1 -1 -1 -1 -1 -1 -1 -1 -1 -1 -1 -1 -1 -1 -1 -1 -1 -1 -1 -1 -1 -1 -1 -1 -1 -1 0 -1 0 -1 0 -1 0 -1 0 -1 0 -1 0 -1 0 -1 0 -1 0 -1 0 -1 0 -1 0 -1 0 -1 1 -1 1 -1 1 -1 1 -1 1 -1 1 -1 1 -1zm432 394l-43 45 -3 -4 -6 -7 -7 -9 -9 -10 -10 -11 -11 -11 -12 -12 -13 -13 -13 -13 -14 -14 -15 -14 -15 -15 -15 -15 -16 -15 -16 -15 -16 -15 -16 -15 -16 -15 -16 -15 -15 -15 -15 -15 -15 -14 -14 -14 -13 -13 -13 -13 -12 -12 -11 -12 -10 -11 -9 -10 -8 -10 -7 -9 -6 -8 -5 -8 55 -29 2 3 4 6 6 7 7 8 8 9 10 10 11 11 12 12 12 13 13 13 14 14 14 14 15 15 15 15 16 15 16 15 16 15 16 15 16 15 16 15 15 15 15 15 15 14 14 14 14 14 13 13 12 13 11 12 10 11 9 11 8 10 7 9 -3 -4zm-46 41l49 -37 1 1 1 1 1 1 1 1 1 1 1 1 0 1 0 1 0 1 0 1 0 1 0 1 0 1 0 1 0 1 0 1 0 1 0 1 0 1 0 1 -1 1 -1 1 -1 1 -1 1 -1 1 -1 1 -1 1 -1 1 -1 1 -1 1 -1 1 -1 1 -1 1 -1 1 -1 1 -1 1 -1 1 -1 1 -1 0 -1 0 -1 0 -1 0 -1 0 -1 0 -1 0 -1 0 -1 0 -1 0 -1 0 -1 0 -1 0 -1 0 -1 -1 -1 -1 -1 -1 -1 -1 -1 -1 -1 -1 -1 -1 -1 -1 -1 -1 -1 -1 -1 -1 -1 -1z"/>
    </g>
    <g>
     <path class="fil3" d="M2258 2529l-94 -89 43 -45 94 89 1 43 -44 1zm0 0l43 -45 1 1 1 1 1 1 1 1 1 1 1 1 1 1 1 1 1 1 1 1 0 1 0 1 0 1 0 1 0 1 0 1 0 1 0 1 0 1 0 1 0 1 0 1 0 1 -1 1 -1 1 -1 1 -1 1 -1 1 -1 1 -1 1 -1 1 -1 1 -1 1 -1 1 -1 1 -1 1 -1 1 -1 1 -1 1 -1 1 -1 1 -1 0 -1 0 -1 0 -1 0 -1 0 -1 0 -1 0 -1 0 -1 0 -1 0 -1 0 -1 0 -1 0 -1 0 -1 -1 -1 -1 -1 -1 -1 -1 -1 -1 -1 -1 -1 -1 -1 -1 -1 -1zm192 -231l44 43 0 0 -6 6 -6 6 -6 6 -6 6 -6 6 -6 6 -6 6 -6 6 -6 6 -6 6 -6 6 -6 6 -6 6 -6 6 -6 6 -6 6 -6 6 -6 6 -6 6 -6 6 -6 6 -6 6 -6 6 -6 6 -6 6 -6 6 -6 6 -6 6 -6 6 -6 6 -6 6 -6 6 -45 -42 6 -6 6 -6 6 -6 6 -6 6 -6 6 -6 6 -6 6 -6 6 -6 6 -6 6 -6 6 -6 6 -6 6 -6 6 -6 6 -6 6 -6 6 -6 6 -6 6 -6 6 -6 6 -6 6 -6 6 -6 6 -6 6 -6 6 -6 6 -6 6 -6 6 -6 6 -6 6 -6 0 0zm44 43l-44 -43 1 -1 1 -1 1 -1 1 -1 1 -1 1 -1 1 -1 1 -1 1 -1 1 0 1 0 1 0 1 0 1 0 1 0 1 0 1 0 1 0 1 0 1 0 1 0 1 0 1 0 1 1 1 1 1 1 1 1 1 1 1 1 1 1 1 1 1 1 1 1 1 1 1 1 1 1 1 1 1 1 1 1 1 1 1 1 0 1 0 1 0 1 0 1 0 1 0 1 0 1 0 1 0 1 0 1 0 1 0 1 0 1 0 1 -1 1 -1 1 -1 1 -1 1 -1 1 -1 1 -1 1 -1 1 -1 1zm151 -207l47 -40 2 37 -5 7 -5 7 -5 7 -5 7 -6 7 -6 7 -6 7 -6 7 -6 7 -6 7 -6 7 -7 7 -7 7 -7 7 -7 7 -7 7 -7 7 -7 7 -7 7 -7 7 -7 7 -7 7 -7 6 -7 6 -7 6 -6 6 -6 6 -6 6 -6 6 -6 6 -6 6 -6 6 -44 -43 6 -6 6 -6 6 -6 6 -6 6 -6 6 -6 7 -6 7 -6 7 -6 7 -6 7 -6 7 -7 7 -7 7 -7 7 -7 7 -7 7 -7 7 -7 6 -7 6 -7 6 -6 6 -6 6 -6 6 -6 6 -6 5 -6 5 -6 5 -6 5 -6 4 -6 4 -6 4 -5 2 37zm50 -3l-52 -34 1 -1 1 -1 1 -1 1 -1 1 -1 1 -1 1 -1 1 -1 1 -1 1 -1 1 -1 1 -1 1 -1 1 0 1 0 1 0 1 0 1 0 1 0 1 0 1 0 1 0 1 0 1 0 1 0 1 0 1 0 1 1 1 1 1 1 1 1 1 1 1 1 1 1 1 1 1 1 1 1 1 1 1 1 1 1 1 1 1 1 1 1 1 1 1 1 0 1 0 1 0 1 0 1 0 1 0 1 0 1 0 1 0 1 0 1 0 1 0 1 0 1 0 1 -1 1 -1 1 -1 1 -1 1 -1 1zm-76 -124l74 88 -47 40 -74 -88 11 -48 36 8zm0 0l-47 40 -1 -1 -1 -1 -1 -1 -1 -1 -1 -1 -1 -1 -1 -1 0 -1 0 -1 0 -1 0 -1 0 -1 0 -1 0 -1 0 -1 0 -1 0 -1 0 -1 0 -1 0 -1 0 -1 1 -1 1 -1 1 -1 1 -1 1 -1 1 -1 1 -1 1 -1 1 -1 1 -1 1 -1 1 -1 1 -1 1 -1 1 -1 1 -1 1 -1 1 -1 1 0 1 0 1 0 1 0 1 0 1 0 1 0 1 0 1 0 1 0 1 0 1 0 1 0 1 0 1 1 1 1 1 1 1 1 1 1 1 1 1 1 1 1 1 1 1 1 1 1zm-411 389l-43 45 1 -45 7 -6 8 -8 9 -9 10 -10 11 -11 12 -12 13 -13 14 -14 14 -14 15 -15 15 -15 15 -16 16 -16 16 -16 16 -16 16 -16 16 -16 16 -16 16 -16 16 -15 15 -15 15 -14 14 -14 14 -13 13 -12 13 -11 12 -10 11 -9 10 -8 10 -7 9 -6 9 -5 25 56 -3 2 -6 4 -7 5 -9 7 -10 8 -11 10 -12 11 -13 12 -13 13 -14 13 -15 14 -15 15 -15 15 -16 16 -16 16 -16 16 -16 16 -16 16 -16 16 -16 16 -15 16 -15 15 -15 15 -14 14 -14 14 -13 13 -12 12 -12 11 -11 10 -10 9 -9 8 -8 7 1 -45zm-42 -1l41 46 -1 1 -1 1 -1 1 -1 1 -1 1 -1 1 -1 1 -1 1 -1 0 -1 0 -1 0 -1 0 -1 0 -1 0 -1 0 -1 0 -1 0 -1 0 -1 0 -1 0 -1 0 -1 0 -1 -1 -1 -1 -1 -1 -1 -1 -1 -1 -1 -1 -1 -1 -1 -1 -1 -1 -1 -1 -1 -1 -1 -1 -1 -1 -1 -1 -1 -1 -1 -1 -1 -1 -1 -1 0 -1 0 -1 0 -1 0 -1 0 -1 0 -1 0 -1 0 -1 0 -1 0 -1 0 -1 0 -1 0 -1 0 -1 1 -1 1 -1 1 -1 1 -1 1 -1 1 -1 1 -1 1 -1 1 -1 1 -1z"/>
    </g>
    <g>
     <path class="fil3" d="M1188 1265l28 55 -33 -3 -3 -2 -3 -2 -3 -3 -3 -3 -3 -3 -3 -3 -3 -3 -3 -3 -3 -3 -3 -3 -3 -3 -3 -3 -3 -3 -3 -3 -3 -3 -3 -3 -3 -3 -3 -3 -3 -3 -3 -3 -3 -3 -3 -3 -3 -3 -3 -3 -3 -3 -3 -3 -3 -3 -3 -3 -3 -3 -3 -3 -3 -3 -3 -3 42 -45 3 3 3 3 3 3 3 3 3 3 3 3 3 3 3 3 3 3 3 3 3 3 3 3 3 3 3 3 3 3 3 3 3 2 3 2 3 2 3 2 3 2 3 2 3 2 3 2 3 2 3 2 3 2 3 2 3 2 3 2 3 2 3 2 -33 -3zm-5 52l38 -49 1 1 1 1 1 1 1 1 1 1 1 1 1 1 1 1 1 1 1 1 1 1 1 1 0 1 0 1 0 1 0 1 0 1 0 1 0 1 0 1 0 1 0 1 0 1 0 1 0 1 0 1 -1 1 -1 1 -1 1 -1 1 -1 1 -1 1 -1 1 -1 1 -1 1 -1 1 -1 1 -1 1 -1 1 -1 1 -1 1 -1 1 -1 1 -1 1 -1 0 -1 0 -1 0 -1 0 -1 0 -1 0 -1 0 -1 0 -1 0 -1 0 -1 0 -1 0 -1 0 -1 0 -1 -1 -1 -1 -1 -1 -1 -1 -1 -1 -1 -1zm230 -228l53 -32 -8 41 -6 5 -6 5 -6 6 -7 6 -7 6 -7 7 -7 7 -7 7 -7 8 -8 8 -8 8 -8 8 -8 8 -8 8 -8 8 -8 8 -8 8 -8 8 -8 8 -8 8 -8 8 -8 8 -8 8 -8 7 -8 7 -8 7 -8 6 -8 6 -8 6 -8 5 -8 5 -8 4 -28 -55 5 -3 5 -3 6 -4 6 -4 6 -5 7 -5 7 -6 7 -6 7 -7 7 -7 7 -7 8 -7 8 -8 8 -8 8 -8 8 -8 8 -8 8 -8 8 -8 8 -8 8 -8 8 -8 8 -8 8 -8 8 -8 8 -8 8 -7 8 -7 8 -7 7 -6 7 -6 7 -6 -8 41zm45 8l-37 -49 1 -1 1 -1 1 -1 1 -1 1 -1 1 -1 1 0 1 0 1 0 1 0 1 0 1 0 1 0 1 0 1 0 1 0 1 0 1 0 1 0 1 0 1 1 1 1 1 1 1 1 1 1 1 1 1 1 1 1 1 1 1 1 1 1 1 1 1 1 1 1 1 1 1 1 1 1 1 1 0 1 0 1 0 1 0 1 0 1 0 1 0 1 0 1 0 1 0 1 0 1 0 1 0 1 0 1 -1 1 -1 1 -1 1 -1 1 -1 1 -1 1 -1 1 -1 1 -1 1 -1 1 -1 1 -1 1zm-98 -93l-14 -60 28 8 3 3 3 3 3 3 3 3 3 3 3 3 3 3 3 3 3 3 3 3 3 3 3 3 3 3 3 3 3 3 3 3 3 3 3 3 3 3 3 3 3 3 3 3 3 3 3 3 3 4 3 4 3 4 3 4 3 4 3 4 2 4 2 4 -53 32 -2 -3 -2 -3 -2 -3 -2 -3 -2 -3 -2 -3 -2 -3 -2 -3 -2 -3 -2 -3 -2 -3 -2 -3 -2 -3 -3 -3 -3 -3 -3 -3 -3 -3 -3 -3 -3 -3 -3 -3 -3 -3 -3 -3 -3 -3 -3 -3 -3 -3 -3 -3 -3 -3 -3 -3 -3 -3 -3 -3 -3 -3 -3 -3 28 8zm15 -52l-43 44 -1 -1 -1 -1 -1 -1 -1 -1 -1 -1 -1 -1 -1 -1 -1 -1 -1 -1 0 -1 0 -1 0 -1 0 -1 0 -1 0 -1 0 -1 0 -1 0 -1 0 -1 0 -1 0 -1 0 -1 0 -1 1 -1 1 -1 1 -1 1 -1 1 -1 1 -1 1 -1 1 -1 1 -1 1 -1 1 -1 1 -1 1 -1 1 -1 1 -1 1 -1 1 -1 1 -1 1 0 1 0 1 0 1 0 1 0 1 0 1 0 1 0 1 0 1 0 1 0 1 0 1 0 1 0 1 1 1 1 1 1 1 1 1 1 1 1 1 1 1 1 1 1zm-36 61l-45 -42 5 -4 2 -1 2 -1 1 -1 1 -1 1 -1 1 -1 1 0 0 0 0 0 0 0 0 0 1 -1 1 -1 1 -1 2 -2 3 -2 3 -1 3 -1 2 -1 2 -1 2 0 1 0 1 0 1 0 1 0 1 0 2 0 2 0 2 0 2 0 3 -1 3 -1 14 60 -3 1 -3 1 -3 1 -2 0 -2 0 -2 0 -2 0 -1 0 -1 0 -1 0 0 0 1 0 1 0 1 -1 2 -1 2 -1 2 -1 1 -1 1 -1 0 0 0 0 -1 1 -1 1 -1 1 -1 1 -1 1 -2 1 -2 1 -2 2 -2 2 -2 2 -3 2 5 -4zm-41 -46l36 50 -1 1 -1 1 -1 1 -1 1 -1 1 -1 1 -1 0 -1 0 -1 0 -1 0 -1 0 -1 0 -1 0 -1 0 -1 0 -1 0 -1 0 -1 0 -1 0 -1 0 -1 -1 -1 -1 -1 -1 -1 -1 -1 -1 -1 -1 -1 -1 -1 -1 -1 -1 -1 -1 -1 -1 -1 -1 -1 -1 -1 -1 -1 -1 -1 -1 -1 -1 -1 -1 0 -1 0 -1 0 -1 0 -1 0 -1 0 -1 0 -1 0 -1 0 -1 0 -1 0 -1 0 -1 0 -1 0 -1 1 -1 1 -1 1 -1 1 -1 1 -1 1 -1 1 -1 1 -1 1 -1 1 -1 1 -1 1 -1zm-210 224l205 -220 45 42 -205 220 -44 2 -2 -43zm0 0l45 42 -1 1 -1 1 -1 1 -1 1 -1 1 -1 1 -1 1 -1 1 -1 1 -1 1 -1 0 -1 0 -1 0 -1 0 -1 0 -1 0 -1 0 -1 0 -1 0 -1 0 -1 0 -1 0 -1 0 -1 0 -1 -1 -1 -1 -1 -1 -1 -1 -1 -1 -1 -1 -1 -1 -1 -1 -1 -1 -1 -1 -1 -1 -1 -1 -1 -1 -1 -1 -1 -1 -1 -1 -1 -1 -1 -1 0 -1 0 -1 0 -1 0 -1 0 -1 0 -1 0 -1 0 -1 0 -1 0 -1 0 -1 0 -1 0 -1 0 -1 1 -1 1 -1 1 -1 1 -1 1 -1 1 -1 1 -1 1 -1z"/>
    </g>
    <polygon class="fil5" points="8584,5639 7379,4070 7320,4115 6959,3650 6827,3751 7187,4215 7127,4261 8332,5830 "/>
    <path class="fil6" d="M6555 1859c-580,-137 -1162,219 -1300,795 -138,576 220,1154 800,1291 580,137 1162,-219 1300,-795 138,-576 -220,-1154 -800,-1291z"/>
    <g>
     <path class="fil7" style="mask:url(#id3)" d="M6154 2924l-287 -323c-42,-48 -110,-35 -153,39 -188,518 72,1063 288,1104 216,41 578,-440 152,-819z"/>
     <path class="fil7" style="mask:url(#id5)" d="M6284 2812l-282 -328c-42,-48 -20,-113 60,-145 543,-112 1049,221 1059,439 10,218 -520,506 -838,34z"/>
     <g>
      <path class="fil4" style="mask:url(#id7)" d="M5986 2328c0,0 191,-165 0,0z"/>
      <path class="fil4" style="mask:url(#id9)" d="M6327 2584l13 -9c-3,0 -5,1 -8,2 -4,1 -4,2 -8,2 -5,4 -13,6 -20,9 -29,14 -35,21 -58,34 -3,-4 -15,-64 -17,-70l-12 -61c-1,-5 -1,-6 -2,-9 -2,4 -1,7 -1,12 1,17 0,35 2,53l2 26c0,1 0,4 1,6 2,19 2,39 4,58 2,19 0,38 -7,57 -9,26 -29,35 -54,23 -22,-11 -40,-34 -60,-48 -7,14 -15,26 -29,39 -20,18 -25,14 -43,24 16,19 29,42 34,65 4,16 8,29 -7,41 -21,17 -51,14 -75,9 -4,-1 -5,0 -10,-1 -26,-5 -90,-22 -114,-25 -8,-1 -24,-6 -31,-3 5,2 11,4 17,6 34,12 67,24 101,37 6,3 11,2 16,8 -20,18 -36,41 -49,64 -3,6 -8,12 -9,18 -1,3 0,0 0,3 31,-30 38,-47 83,-79 11,6 38,7 49,5 21,-3 35,-11 52,-25 5,5 -1,32 -3,39 -5,16 -12,33 -19,48 -2,4 -2,6 -4,10 -12,28 -26,69 -30,98 -1,8 -1,13 -6,20 -16,21 -42,41 -69,45 -4,1 -6,1 -10,2 -7,1 -14,-1 -21,2 32,24 76,-1 101,-25 4,6 3,9 4,15 5,29 29,82 59,90 0,0 0,-1 0,-1 -2,-4 2,0 -5,-7 -3,-3 -4,-5 -7,-8 -10,-13 -17,-29 -22,-45 -6,-17 -8,-43 -7,-59 2,-29 9,-58 21,-85l25 -55c14,-34 22,-45 25,-84 0,-5 1,-9 1,-14 0,-5 0,-10 0,-14 0,-36 -21,-86 -21,-87 3,0 5,3 8,5 20,17 52,28 78,31 10,1 19,3 29,3 50,-1 68,-8 119,-23 20,-6 41,-11 60,-14 15,-2 29,-3 44,-3 10,0 19,0 29,2 15,3 28,7 43,13 24,10 36,21 55,45l-1 -8c-1,-2 -2,-5 -3,-8 -13,-25 -40,-43 -64,-55 -7,-3 -21,-5 -26,-10 19,-16 33,-29 40,-48 3,-7 6,-19 6,-25 0,-8 0,-18 -7,-26 -3,7 -3,14 -5,21 -8,31 -31,58 -61,74 -6,3 -13,1 -20,2 -79,3 -130,29 -177,31 -9,0 -22,3 -30,-2 8,-8 15,-12 21,-21 10,-14 12,-27 16,-43 1,-4 1,-7 1,-11 0,-5 0,-6 0,-11 -1,-18 -8,-11 29,-42 12,-10 39,-27 46,-34z"/>
      <path class="fil4" style="mask:url(#id11)" d="M6094 2466l0 4c3,3 2,1 1,3 3,4 2,1 1,3 2,1 3,1 1,2 3,8 6,21 8,29 9,33 17,55 29,89 8,21 15,38 25,60 6,13 7,19 20,26 8,4 21,11 29,7 -7,-18 -45,-91 -54,-108l-52 -106c-4,-4 -2,-2 -2,-4 -1,-2 -4,-3 -1,-5l-4 -2 1 3z"/>
      <path class="fil4" style="mask:url(#id13)" d="M5842 2693c-4,-1 -1,-1 -4,-1 3,5 21,15 26,18 53,34 103,71 154,106l25 17c2,-5 0,0 1,-4 1,-4 -1,-9 -2,-13 -8,-31 -13,-28 -28,-38 -23,-15 -63,-36 -88,-48 -10,-5 -20,-9 -29,-14l-29 -13c-5,-2 -9,-4 -15,-6l-11 -4z"/>
      <path class="fil4" style="mask:url(#id15)" d="M6013 2684l-4 2 -10 5c3,3 5,6 8,9 3,3 6,5 4,7l9 10 4 -2c5,-3 3,-2 5,-1 3,-3 3,-4 6,-2 3,-3 6,-7 9,-6 10,-9 18,-14 28,-24 13,-14 12,-16 20,-26l-24 -23c-2,1 -17,20 -24,27 -16,16 -23,17 -32,24z"/>
      <path class="fil4" style="mask:url(#id17)" d="M5703 2351c3,-1 5,-4 6,-6 11,-17 27,-31 45,-42 6,-4 12,-5 18,-9l-20 -27c-33,14 -48,23 -67,54 -6,10 -4,8 3,14 5,5 10,13 16,16z"/>
      <path class="fil4" style="mask:url(#id19)" d="M6034 2653c5,-5 22,-23 24,-28 2,-6 -15,-19 -22,-27 -22,29 -36,38 -66,57l22 26c17,-7 28,-16 42,-28z"/>
      <path class="fil4" style="mask:url(#id21)" d="M5715 2363l23 24c4,-4 18,-28 47,-45 6,-4 13,-6 18,-10l-21 -27c-25,7 -57,36 -67,58z"/>
      <path class="fil4" style="mask:url(#id23)" d="M5939 2617c22,26 15,33 44,12 12,-9 35,-29 42,-42l-23 -24c-6,4 -10,10 -14,15 -13,13 -45,36 -48,40z"/>
      <path class="fil4" style="mask:url(#id25)" d="M5747 2397c3,5 19,22 23,23 1,0 19,-22 27,-29 11,-10 27,-17 35,-24 -3,-4 -18,-24 -20,-25 -9,-5 -59,36 -64,54z"/>
      <path class="fil4" style="mask:url(#id27)" d="M5969 2527c-15,13 -27,27 -45,40 -18,13 -18,11 -12,17 6,7 11,14 18,21 19,-9 49,-37 63,-53l-23 -25z"/>
      <path class="fil4" style="mask:url(#id29)" d="M5831 2430l32 -24 -21 -26c-21,9 -41,27 -56,45 -9,12 -6,8 4,20 2,3 8,9 10,11 4,3 4,0 8,-5 7,-7 13,-14 21,-21z"/>
      <path class="fil4" style="mask:url(#id31)" d="M5899 2568c9,-7 56,-44 59,-51 1,-4 -17,-22 -21,-26l-60 51 22 26z"/>
      <path class="fil4" style="mask:url(#id33)" d="M5840 2492l10 -10c16,-11 29,-27 45,-36 -1,-2 -2,-1 0,-2l-22 -25 -2 1c-2,2 -3,4 -6,5 -4,3 -2,3 -4,1 -11,11 -27,21 -37,34 -9,11 -12,7 -3,18 5,5 10,13 16,17l3 -2z"/>
      <path class="fil4" style="mask:url(#id35)" d="M5847 2506l0 2 21 24 13 -9c-1,-3 25,-25 31,-29 4,-3 2,-2 5,-2l11 -10c-2,-4 -12,-15 -16,-20l-6 -5c-3,2 -21,18 -25,18l-12 10c1,3 0,2 -3,5 -2,2 -4,3 -6,5 -4,4 -8,8 -12,11z"/>
      <path class="fil4" style="mask:url(#id37)" d="M5847 2508l0 -2c5,-3 8,-7 12,-11 2,-2 4,-3 6,-5 3,-3 4,-2 3,-5l12 -10c4,1 22,-15 25,-18l6 5c4,5 14,16 16,20l-11 10c-3,0 0,-1 -5,2 -5,4 -31,26 -31,29l-13 9 -21 -24zm0 -2c-2,1 -2,0 0,2 2,4 19,23 22,25l12 -10 35 -31c3,-2 10,-7 11,-10 0,-5 -16,-22 -21,-26 -5,1 -21,14 -26,19l-12 10c-6,4 -19,15 -21,21z"/>
      <path class="fil4" style="mask:url(#id39)" d="M5840 2492c4,-2 9,-7 10,-10l-10 10 -3 2c-6,-4 -11,-12 -16,-17 -9,-10 -6,-7 3,-18 10,-12 27,-22 37,-34 2,2 0,1 4,-1 3,-2 4,-3 6,-5l2 -1 22 25c-2,1 -1,0 0,2 2,-1 2,-1 0,-2 -4,-7 -15,-21 -22,-25 -1,-2 0,-2 -2,1l-10 7c-9,4 -44,35 -48,45 4,5 9,11 14,16 4,5 10,13 12,6z"/>
      <path class="fil4" style="mask:url(#id41)" d="M6011 2708c0,1 3,4 4,6 0,0 2,3 3,3 3,3 -1,2 3,1l4 -2c4,0 1,1 5,-1l6 -2 9 -6c-3,-1 -7,3 -9,6 -2,-2 -2,-1 -6,2 -2,0 0,-2 -5,1l-4 2 -9 -10c2,-2 -1,-4 -4,-7 -3,-3 -5,-6 -8,-9l10 -5 4 -2c-2,-1 -2,-1 -4,2l-11 4c1,4 9,14 13,18z"/>
      <path class="fil4" style="mask:url(#id43)" d="M6327 2584c2,0 20,-11 23,-14 -1,1 -10,3 -13,4 -5,1 -8,3 -14,5 4,1 4,0 8,-2 3,-1 5,-2 8,-2l-13 9z"/>
      <path class="fil4" style="mask:url(#id45)" d="M6074 2481l1 3 0 4 1 3c-1,2 -2,0 1,3l1 2c2,-2 2,-1 -1,-2 1,-1 2,1 -1,-3 1,-2 3,0 -1,-3l0 -4 -1 -3 4 2c-2,1 0,3 1,5 0,2 -2,0 2,4 0,-2 1,-1 -2,-4l-1 -5 -1 -2c0,0 -1,-1 -1,-2l-6 -11 4 13z"/>
     </g>
    </g>
    <g>
     <path class="fil8" d="M5219 2646l0 0 15 -55 17 -54 20 -52 22 -51 25 -49 27 -48 29 -46 31 -44 33 -43 35 -41 37 -39 39 -37 40 -35 42 -33 44 -31 45 -29 46 -27 48 -25 49 -22 50 -20 51 -18 52 -15 53 -13 53 -10 54 -8 55 -5 55 -2 55 0 56 3 56 6 56 9 56 12 -17 72 -53 -11 -52 -8 -52 -6 -52 -3 -52 0 -51 2 -51 5 -50 7 -50 10 -49 12 -48 14 -47 16 -46 19 -45 21 -44 23 -43 25 -42 27 -41 29 -39 31 -38 33 -36 35 -35 36 -33 38 -31 40 -29 41 -27 43 -25 45 -23 46 -21 47 -19 49 -16 50 -14 52 0 0 -73 -17zm828 1336l0 0 -56 -15 -54 -17 -53 -20 -51 -22 -50 -24 -48 -27 -46 -29 -45 -31 -43 -33 -41 -35 -39 -37 -37 -38 -35 -40 -33 -42 -31 -43 -29 -45 -27 -46 -25 -47 -22 -48 -20 -49 -18 -50 -15 -51 -13 -52 -10 -53 -8 -54 -5 -54 -2 -55 0 -55 3 -55 6 -56 9 -56 12 -56 73 17 -11 52 -8 52 -6 52 -3 52 0 51 2 51 5 51 7 50 10 49 12 49 14 48 17 47 19 46 21 45 23 44 25 43 27 42 29 40 31 39 33 37 35 36 37 34 38 33 40 31 42 29 43 27 45 25 46 23 48 21 49 18 51 16 52 14 0 0 -17 72zm1345 -822l0 0 -15 55 -17 54 -20 52 -22 51 -25 49 -27 48 -29 46 -31 44 -33 43 -35 41 -37 39 -39 37 -40 35 -42 33 -44 31 -45 29 -46 27 -48 25 -49 22 -50 20 -51 18 -52 15 -53 13 -53 10 -54 8 -55 5 -55 2 -55 0 -56 -3 -56 -6 -56 -9 -56 -12 17 -72 53 11 52 8 52 6 52 3 52 0 51 -2 51 -5 50 -7 50 -10 49 -12 48 -14 47 -16 46 -19 45 -21 44 -23 43 -25 42 -27 41 -29 39 -31 38 -33 36 -35 35 -36 33 -38 31 -40 29 -41 27 -43 25 -45 23 -46 21 -47 19 -49 16 -50 14 -52 0 0 73 17zm-828 -1336l0 0 56 15 54 17 53 20 51 22 50 24 48 27 46 29 45 31 43 33 41 35 39 37 37 38 35 40 33 42 31 43 29 45 27 46 25 47 22 48 20 49 18 50 15 51 13 52 10 53 8 54 5 54 2 55 0 55 -3 55 -6 56 -9 56 -12 56 -73 -17 11 -52 8 -52 6 -52 3 -52 0 -51 -2 -51 -5 -51 -7 -50 -10 -49 -12 -49 -14 -48 -17 -47 -19 -46 -21 -45 -23 -44 -25 -43 -27 -42 -29 -40 -31 -39 -33 -37 -35 -36 -37 -34 -38 -33 -40 -31 -42 -29 -43 -27 -45 -25 -46 -23 -48 -21 -49 -18 -51 -16 -52 -14 0 0 17 -72z"/>
    </g>
   </g>
  </g>
  <polygon class="fil2" points="0,18 8509,0 8509,8509 0,8493 "/>
 </g>
</svg>
