<svg width="100" height="100" viewBox="0 0 100 100" fill="none" xmlns="http://www.w3.org/2000/svg">
<g clip-path="url(#clip0_17_4386)">
<path d="M12.5 31H5V87C5 89.1217 5.79018 91.1566 7.1967 92.6569C8.60322 94.1571 10.5109 95 12.5 95H65V87H12.5V31ZM66.875 64C66.875 58 55.625 55 50 55C44.375 55 33.125 58 33.125 64V67H66.875V64ZM50 48C54.65 48 58.4375 43.96 58.4375 39C58.4375 34.04 54.65 30 50 30C45.35 30 41.5625 34.04 41.5625 39C41.5625 43.96 45.35 48 50 48ZM72.5 15H27.5C23.375 15 20 18.6 20 23V71C20 73.1217 20.7902 75.1566 22.1967 76.6569C23.6032 78.1571 25.5109 79 27.5 79H72.5C76.6625 79 80 75.44 80 71V23C80 20.8783 79.2098 18.8434 77.8033 17.3431C76.3968 15.8429 74.4891 15 72.5 15ZM72.5 71H27.5V23H72.5V71Z" fill="white"/>
<path fill-rule="evenodd" clip-rule="evenodd" d="M69.5 14C69.5 7.1 75.1 1.5 82 1.5C88.9 1.5 94.5 7.1 94.5 14C94.5 20.9 88.9 26.5 82 26.5C75.1 26.5 69.5 20.9 69.5 14ZM83.25 15.25H88.25V12.75H83.25V7.75H80.75V12.75H75.75V15.25H80.75V20.25H83.25V15.25Z" fill="white"/>
</g>
<defs>
<clipPath id="clip0_17_4386">
<rect width="100" height="100" fill="white"/>
</clipPath>
</defs>
</svg>
